<svg width="500" height="449" viewBox="0 0 500 449" fill="none" xmlns="http://www.w3.org/2000/svg">
<path d="M249.999 427.56C357.082 427.56 443.889 422.492 443.889 416.24C443.889 409.988 357.082 404.92 249.999 404.92C142.917 404.92 56.1094 409.988 56.1094 416.24C56.1094 422.492 142.917 427.56 249.999 427.56Z" fill="#F5F5F5" fill-opacity="0.6"/>
<path d="M137.82 145.88C129.76 153.99 143.46 166.58 134.41 172.36C141.8 176.07 167.7 180.78 174.41 166.19C169.52 162.39 172.92 153.05 168.41 144.08C161.66 130.78 129.76 136.67 137.82 145.88Z" fill="#263238"/>
<path d="M138.55 145.67C136.04 145.25 127.55 149.47 133.87 160.8C138.96 169.96 134.72 170.61 134.72 170.61C134.72 170.61 139.72 170.75 136.72 163.94C133.54 156.67 132.05 149.13 138.55 145.67Z" fill="#263238"/>
<path d="M198.001 217.61C197.692 217.044 197.173 216.622 196.556 216.435C195.938 216.248 195.272 216.311 194.701 216.61L194.111 216.92C193.921 217.02 193.561 217.26 193.271 217.43C192.981 217.6 192.641 217.79 192.321 217.95C191.691 218.268 191.039 218.541 190.371 218.77C189.135 219.218 187.835 219.465 186.521 219.5C185.314 219.514 184.113 219.322 182.971 218.93C182.246 218.661 181.546 218.326 180.881 217.93C180.021 216.03 179.201 214.11 178.501 212.13C177.651 209.82 176.901 207.46 176.241 205.07C175.581 202.68 175.001 200.26 174.521 197.83C174.271 196.62 174.051 195.4 173.851 194.19L173.581 192.38C173.491 191.8 173.411 191.14 173.361 190.68V190.48C173.229 189.154 172.575 187.935 171.543 187.091C170.512 186.247 169.187 185.848 167.861 185.98C166.535 186.113 165.316 186.767 164.472 187.798C163.628 188.83 163.229 190.154 163.361 191.48C163.431 192.33 163.491 192.98 163.581 193.69C163.671 194.4 163.771 195.08 163.871 195.77C164.091 197.15 164.341 198.51 164.621 199.87C165.177 202.573 165.878 205.243 166.721 207.87C167.111 209.19 167.591 210.49 168.041 211.8C168.491 213.11 169.041 214.39 169.611 215.66C170.702 218.226 171.941 220.727 173.321 223.15L173.441 223.37C173.8 224.021 174.338 224.556 174.991 224.91C176.881 225.94 178.924 226.663 181.041 227.05C183.216 227.434 185.445 227.387 187.601 226.91C190.645 226.204 193.44 224.687 195.691 222.52C196.061 222.18 196.411 221.83 196.691 221.46C196.971 221.09 197.311 220.74 197.691 220.22C197.984 219.859 198.169 219.422 198.224 218.96C198.279 218.498 198.202 218.03 198.001 217.61Z" fill="#FF8B7B"/>
<path d="M204.651 208.25H204.361C203.404 208.23 202.455 208.43 201.588 208.836C200.721 209.242 199.959 209.842 199.361 210.59L194.531 216.65V220.79C198.411 222.33 203.331 218.18 203.331 218.18L205.821 217.55C206.659 217.341 207.39 216.829 207.872 216.112C208.354 215.395 208.553 214.525 208.431 213.67L208.071 211.24C207.954 210.415 207.544 209.659 206.916 209.11C206.289 208.561 205.485 208.256 204.651 208.25Z" fill="#FF8B7B"/>
<path d="M173.231 184.881C176.461 188.201 176.661 198.111 176.661 198.111L163.741 208.511C163.741 208.511 158.431 193.811 161.371 188.621C163.861 184.221 169.111 180.651 173.231 184.881Z" fill="#173366"/>
<g opacity="0.2">
<path d="M173.231 184.881C176.461 188.201 176.661 198.111 176.661 198.111L163.741 208.511C163.741 208.511 158.431 193.811 161.371 188.621C163.861 184.221 169.111 180.651 173.231 184.881Z" fill="white"/>
</g>
<path d="M151.852 407.67L158.992 408.45L159.972 389.05L152.832 388.26L151.852 407.67Z" fill="#FF8B7B"/>
<path d="M160.163 403.79H151.773C151.604 403.785 151.439 403.845 151.314 403.959C151.189 404.073 151.113 404.231 151.103 404.4L150.543 412.33C150.543 412.745 150.705 413.144 150.994 413.441C151.284 413.738 151.678 413.91 152.093 413.92C155.633 413.92 155.673 413.92 160.093 413.92H172.003C175.663 413.92 175.673 410.21 174.093 409.87C166.983 408.37 164.213 406.29 161.703 404.31C161.262 403.97 160.72 403.787 160.163 403.79Z" fill="#263238"/>
<path opacity="0.2" d="M159.971 389.061L159.461 399.061H152.281L152.831 388.271L159.971 389.061Z" fill="black"/>
<path d="M163.823 234.27C163.823 234.27 170.003 286 170.003 309C165.133 341 161.003 397.16 161.003 397.16L151.123 396.9C151.123 396.9 146.633 335.74 150.793 309.33C145.463 285.67 138.883 231.07 138.883 231.07L163.823 234.27Z" fill="#263238"/>
<path opacity="0.2" d="M144.772 248.67C143.594 249.188 142.452 249.783 141.352 250.45C142.712 260.66 144.502 273.51 146.402 285.37C149.642 275.61 147.892 254.15 144.772 248.67Z" fill="black"/>
<path d="M74.5312 389.661L80.4212 393.771L90.5813 377.211L84.6913 373.101L74.5312 389.661Z" fill="#FF8B7B"/>
<path d="M81.9111 391.6L76.9111 384.87C76.8159 384.732 76.6704 384.637 76.5058 384.605C76.3413 384.574 76.1708 384.608 76.0311 384.7L69.3311 389C68.9969 389.246 68.7728 389.614 68.7073 390.024C68.6418 390.433 68.7402 390.852 68.9811 391.19C71.0711 394.04 71.1111 394.06 73.7411 397.6C75.3711 399.77 78.6211 404.14 80.8611 407.15C83.1011 410.16 86.0311 407.88 85.3511 406.4C82.3511 399.81 82.3511 396.4 82.4111 393.16C82.4213 392.599 82.2455 392.051 81.9111 391.6Z" fill="#263238"/>
<path opacity="0.2" d="M90.5713 377.211L85.3412 385.751L79.0312 382.311L84.6913 373.101L90.5713 377.211Z" fill="black"/>
<path d="M110.662 396.6C105.552 396.6 94.9125 396.6 94.7325 389.08C94.5925 383.18 101.892 380.73 108.192 380.43C108.89 380.396 109.588 380.501 110.246 380.737C110.904 380.973 111.508 381.336 112.026 381.806C112.543 382.276 112.963 382.843 113.261 383.475C113.559 384.107 113.729 384.792 113.762 385.49V385.89C120.902 385.55 125.522 383.99 127.212 381.33C131.022 375.33 123.722 359.84 116.672 344.87C108.372 327.26 98.9724 307.31 98.7924 288.2C98.7859 287.501 98.9169 286.808 99.1782 286.16C99.4395 285.512 99.8258 284.922 100.315 284.424C100.805 283.925 101.387 283.528 102.03 283.254C102.673 282.981 103.364 282.837 104.062 282.83C105.464 282.833 106.808 283.387 107.804 284.373C108.8 285.36 109.367 286.699 109.382 288.1C109.542 304.88 118.382 323.71 126.242 340.33C135.242 359.51 143.092 376.08 136.142 387.03C132.112 393.47 123.762 396.6 110.662 396.6Z" fill="#173366"/>
<path d="M155.911 233.251C155.911 233.251 138.851 292.371 130.521 313.811C114.381 341.871 87.6008 384.811 87.6008 384.811L79.0508 379.811C79.0508 379.811 99.0508 330.211 112.501 307.111C116.111 283.111 129.761 229.851 129.761 229.851L155.911 233.251Z" fill="#263238"/>
<path d="M83.4511 396.43C83.7905 396.991 84.3132 397.419 84.9312 397.64C85.112 397.683 85.3015 397.675 85.4781 397.617C85.6548 397.559 85.8117 397.452 85.9312 397.31C86.0143 397.233 86.0777 397.138 86.1161 397.032C86.1544 396.926 86.1664 396.812 86.1512 396.7C86.0312 395.5 82.9311 393.94 82.3111 393.64C82.275 393.625 82.2347 393.624 82.1979 393.637C82.1611 393.65 82.1302 393.676 82.1112 393.71C82.087 393.747 82.0742 393.79 82.0742 393.835C82.0742 393.879 82.087 393.923 82.1112 393.96C82.4784 394.824 82.927 395.651 83.4511 396.43ZM85.5812 396.43C85.6692 396.54 85.7277 396.671 85.7512 396.81C85.756 396.849 85.7512 396.888 85.7373 396.925C85.7233 396.961 85.7006 396.994 85.6712 397.02C85.5905 397.112 85.4869 397.18 85.3709 397.219C85.2549 397.258 85.1308 397.265 85.0112 397.24C84.3512 397.11 83.4812 396.04 82.6412 394.35C83.7303 394.857 84.7246 395.547 85.5812 396.39V396.43Z" fill="#173366"/>
<path d="M82.0602 394L82.1202 394.05C83.1202 394.6 85.7202 395.05 86.2902 394.22C86.3859 394.069 86.4324 393.891 86.4235 393.712C86.4145 393.533 86.3505 393.361 86.2402 393.22C85.2402 391.45 82.2402 393.53 82.1102 393.62C82.0804 393.644 82.0567 393.674 82.041 393.709C82.0254 393.744 82.0182 393.782 82.0202 393.82C82.0162 393.883 82.0301 393.945 82.0602 394ZM85.8602 393.42C85.8894 393.455 85.9161 393.492 85.9402 393.53C86.0502 393.72 86.0702 393.86 86.0102 393.94C85.6802 394.42 83.7602 394.25 82.6402 393.81C83.3902 393.36 85.1402 392.45 85.8602 393.42Z" fill="#173366"/>
<path d="M165.002 405.44C165.658 405.5 166.314 405.334 166.862 404.97C167.001 404.848 167.104 404.69 167.159 404.514C167.213 404.337 167.218 404.149 167.172 403.97C167.158 403.857 167.118 403.749 167.056 403.654C166.993 403.558 166.91 403.478 166.812 403.42C165.812 402.81 162.682 404.36 162.072 404.68C162.038 404.699 162.011 404.729 161.997 404.766C161.982 404.802 161.98 404.843 161.992 404.88C162.007 404.922 162.033 404.959 162.066 404.989C162.099 405.019 162.139 405.04 162.182 405.05C163.106 405.276 164.051 405.407 165.002 405.44ZM166.242 403.71C166.385 403.701 166.527 403.732 166.652 403.8C166.702 403.8 166.752 403.87 166.772 403.99C166.798 404.11 166.792 404.234 166.753 404.35C166.714 404.467 166.645 404.57 166.552 404.65C166.062 405.1 164.682 405.16 162.822 404.83C163.873 404.267 165.013 403.888 166.192 403.71H166.242Z" fill="#173366"/>
<path d="M162.18 405.1H162.25C163.25 404.64 165.2 402.81 164.88 401.86C164.813 401.703 164.702 401.569 164.559 401.475C164.417 401.38 164.25 401.33 164.08 401.33C162.08 401.1 161.94 404.72 161.93 404.87C161.93 404.91 161.94 404.949 161.959 404.984C161.979 405.019 162.006 405.048 162.04 405.07C162.082 405.094 162.131 405.104 162.18 405.1ZM163.98 401.7H164.12C164.33 401.7 164.46 401.79 164.49 401.89C164.68 402.44 163.4 403.89 162.37 404.52C162.46 403.65 162.78 401.7 164 401.7H163.98Z" fill="#173366"/>
<path d="M129.762 229.9L163.822 234.26C171.502 208.4 174.032 195.91 174.712 189.9C174.892 188.389 174.539 186.863 173.713 185.585C172.888 184.307 171.643 183.357 170.192 182.9C168.192 182.26 165.612 181.5 163.052 180.9C162.182 180.67 161.292 180.46 160.422 180.26C155.323 179.225 150.156 178.557 144.962 178.26C144.192 178.19 143.432 178.15 142.662 178.11C141.152 178.03 139.662 178.01 138.302 178.01C137.281 178.009 136.271 178.22 135.337 178.631C134.402 179.041 133.563 179.642 132.874 180.394C132.184 181.147 131.659 182.035 131.331 183.002C131.004 183.969 130.881 184.993 130.972 186.01C131.242 189.01 131.452 191.8 131.612 194.36C131.992 200.36 132.112 205.16 132.022 209.36C131.817 216.256 131.062 223.124 129.762 229.9Z" fill="#173366"/>
<g opacity="0.3">
<path d="M129.762 229.9L163.822 234.26C171.502 208.4 174.032 195.91 174.712 189.9C174.892 188.389 174.539 186.863 173.713 185.585C172.888 184.307 171.643 183.357 170.192 182.9C168.192 182.26 165.612 181.5 163.052 180.9C162.182 180.67 161.292 180.46 160.422 180.26C155.323 179.225 150.156 178.557 144.962 178.26C144.192 178.19 143.432 178.15 142.662 178.11C141.152 178.03 139.662 178.01 138.302 178.01C137.281 178.009 136.271 178.22 135.337 178.631C134.402 179.041 133.563 179.642 132.874 180.394C132.184 181.147 131.659 182.035 131.331 183.002C131.004 183.969 130.881 184.993 130.972 186.01C131.242 189.01 131.452 191.8 131.612 194.36C131.992 200.36 132.112 205.16 132.022 209.36C131.817 216.256 131.062 223.124 129.762 229.9Z" fill="white"/>
</g>
<path opacity="0.3" d="M132 209.32C136.5 203.5 138.13 196.84 136.67 193.17L131.59 194.31C132 200.29 132.11 205.11 132 209.32Z" fill="#173366"/>
<path d="M163.052 180.84C162.172 180.61 161.292 180.4 160.422 180.2C155.319 179.17 150.149 178.502 144.952 178.2C144.182 178.14 143.422 178.1 142.662 178.06L141.332 178L142.332 179.75C142.472 179.99 145.872 185.55 154.332 191.53L156.142 192.79L157.882 191.46C159.558 190.258 160.927 188.678 161.879 186.849C162.831 185.02 163.339 182.992 163.362 180.93L163.052 180.84Z" fill="white"/>
<path d="M148.709 167.92C148.389 172.13 147.399 176.42 144.949 178.22C144.949 178.22 148.069 183.41 156.149 189.08C161.209 185.21 160.419 180.2 160.419 180.2C155.039 178.2 155.419 174.47 157.689 168.52L153.489 166.26C153.127 165.861 152.655 165.577 152.133 165.444C151.61 165.31 151.06 165.334 150.551 165.511C150.041 165.687 149.595 166.01 149.268 166.439C148.94 166.867 148.746 167.382 148.709 167.92Z" fill="#FF8B7B"/>
<path opacity="0.2" d="M153.492 166.26C153.151 165.884 152.714 165.609 152.227 165.467C151.741 165.324 151.224 165.318 150.735 165.451C150.245 165.583 149.802 165.849 149.454 166.217C149.105 166.586 148.866 167.044 148.762 167.54C150.357 170.757 152.93 173.386 156.112 175.05C156.226 172.795 156.758 170.58 157.682 168.52L153.492 166.26Z" fill="black"/>
<path d="M142.173 154.72C144.263 162.85 144.973 166.33 149.943 169.72C157.413 174.86 166.943 170.52 167.313 161.94C167.663 154.21 164.193 142.21 155.513 140.49C153.597 140.098 151.612 140.204 149.748 140.797C147.885 141.39 146.204 142.45 144.866 143.877C143.529 145.304 142.579 147.049 142.107 148.948C141.636 150.846 141.658 152.833 142.173 154.72Z" fill="#FF8B7B"/>
<path d="M162.862 142.171C157.966 146.523 152.157 149.725 145.862 151.541C145.862 151.541 152.072 164.751 140.452 161.421C137.082 150.171 140.452 144.331 143.452 141.581C152.692 138.581 159.192 137.581 162.862 142.171Z" fill="#263238"/>
<path d="M141.781 162.73C142.462 164.203 143.699 165.346 145.221 165.91C147.221 166.63 148.411 164.91 147.981 162.91C147.591 161.12 146.071 158.58 143.981 158.71C143.529 158.748 143.093 158.898 142.713 159.146C142.333 159.394 142.02 159.732 141.802 160.13C141.585 160.528 141.469 160.973 141.465 161.427C141.461 161.881 141.57 162.328 141.781 162.73Z" fill="#FF8B7B"/>
<path d="M129.509 227.84L127.579 230.69C127.429 230.91 127.679 231.19 128.069 231.24L163.789 235.82C164.099 235.82 164.369 235.74 164.419 235.55L165.119 232.55C165.119 232.34 164.919 232.13 164.589 232.08L130.089 227.66C129.985 227.636 129.877 227.64 129.775 227.671C129.673 227.703 129.581 227.761 129.509 227.84Z" fill="#173366"/>
<path d="M133.642 232.29L132.722 232.17C132.542 232.17 132.412 232.03 132.442 231.92L133.382 228.01C133.418 227.945 133.475 227.893 133.544 227.864C133.613 227.835 133.69 227.83 133.762 227.85L134.692 227.97C134.872 227.97 135.002 228.1 134.972 228.22L134.032 232.12C134.002 232.24 133.832 232.31 133.642 232.29Z" fill="#263238"/>
<path d="M161.15 235.81L160.23 235.7C160.05 235.7 159.92 235.56 159.95 235.44L160.89 231.54C160.89 231.43 161.09 231.35 161.27 231.37L162.2 231.49C162.38 231.49 162.51 231.63 162.48 231.74L161.54 235.65C161.51 235.76 161.34 235.84 161.15 235.81Z" fill="#263238"/>
<path d="M147.402 234.05L146.482 233.93C146.292 233.93 146.162 233.8 146.192 233.68L147.132 229.78C147.132 229.66 147.332 229.59 147.522 229.61L148.442 229.73C148.622 229.73 148.752 229.87 148.732 229.98L147.782 233.89C147.762 234 147.582 234.07 147.402 234.05Z" fill="#263238"/>
<path d="M156.1 154.37C156.22 155.04 156.68 155.52 157.1 155.43C157.52 155.34 157.79 154.74 157.66 154.07C157.53 153.4 157.07 152.92 156.66 153.01C156.25 153.1 156 153.7 156.1 154.37Z" fill="#263238"/>
<path d="M163.661 152.92C163.791 153.59 164.251 154.06 164.661 153.98C165.071 153.9 165.351 153.28 165.221 152.61C165.091 151.94 164.631 151.47 164.221 151.55C163.811 151.63 163.541 152.25 163.661 152.92Z" fill="#263238"/>
<path d="M164 151.631L165.52 150.851C165.52 150.851 165 152.271 164 151.631Z" fill="#263238"/>
<path d="M161.66 154.42C162.554 155.829 163.634 157.11 164.87 158.23C164.577 158.541 164.219 158.784 163.822 158.941C163.424 159.099 162.997 159.166 162.57 159.14L161.66 154.42Z" fill="#FF5652"/>
<path d="M156.939 161.841C156.909 161.876 156.892 161.92 156.891 161.966C156.889 162.012 156.904 162.057 156.932 162.094C156.961 162.13 157.001 162.156 157.046 162.166C157.091 162.177 157.138 162.171 157.179 162.151C157.935 161.765 158.771 161.564 159.619 161.564C160.467 161.564 161.304 161.765 162.059 162.151C162.105 162.176 162.158 162.184 162.208 162.17C162.259 162.157 162.302 162.125 162.329 162.081C162.357 162.035 162.366 161.981 162.354 161.929C162.343 161.877 162.313 161.831 162.269 161.801C161.454 161.383 160.551 161.165 159.634 161.165C158.718 161.165 157.815 161.383 156.999 161.801C156.999 161.801 156.999 161.821 156.939 161.841Z" fill="#263238"/>
<path d="M153.492 152.31C153.554 152.272 153.603 152.216 153.632 152.15C153.841 151.694 154.154 151.294 154.547 150.983C154.94 150.672 155.401 150.459 155.892 150.36C155.945 150.354 155.996 150.337 156.042 150.311C156.088 150.285 156.129 150.25 156.161 150.208C156.194 150.166 156.218 150.119 156.232 150.067C156.246 150.016 156.249 149.963 156.242 149.91C156.237 149.858 156.222 149.807 156.197 149.761C156.172 149.715 156.138 149.674 156.097 149.641C156.056 149.609 156.008 149.585 155.958 149.571C155.907 149.557 155.854 149.553 155.802 149.56C155.177 149.677 154.589 149.941 154.086 150.331C153.584 150.72 153.181 151.224 152.912 151.8C152.873 151.879 152.862 151.968 152.879 152.055C152.896 152.141 152.941 152.219 153.007 152.277C153.073 152.335 153.156 152.37 153.244 152.376C153.332 152.382 153.419 152.359 153.492 152.31Z" fill="#263238"/>
<path d="M165.912 147.24L165.962 147.19C165.993 147.147 166.014 147.098 166.026 147.046C166.037 146.995 166.038 146.941 166.029 146.889C166.02 146.837 166 146.787 165.972 146.743C165.943 146.698 165.906 146.66 165.862 146.63C165.345 146.258 164.747 146.016 164.118 145.922C163.488 145.828 162.845 145.885 162.242 146.09C162.146 146.132 162.069 146.209 162.028 146.306C161.988 146.403 161.985 146.512 162.022 146.61C162.062 146.708 162.139 146.786 162.237 146.827C162.334 146.869 162.444 146.87 162.542 146.83C163.021 146.673 163.531 146.633 164.028 146.713C164.526 146.793 164.997 146.991 165.402 147.29C165.479 147.345 165.573 147.37 165.667 147.361C165.76 147.351 165.848 147.309 165.912 147.24Z" fill="#263238"/>
<path d="M156.473 153.081L157.993 152.311C157.993 152.311 157.403 153.721 156.473 153.081Z" fill="#263238"/>
<path d="M104.112 293.47C102.71 293.47 101.364 292.917 100.368 291.93C99.3716 290.943 98.8053 289.603 98.7921 288.2C98.6521 274 103.382 262.01 112.472 253.53C123.662 243.09 141.112 238.24 161.632 239.86C176.022 241 185.252 237.5 195.932 233.43C197.692 232.77 199.462 232.09 201.282 231.43C202.608 230.948 204.072 231.011 205.351 231.608C206.63 232.204 207.619 233.284 208.102 234.61C208.585 235.936 208.521 237.4 207.925 238.679C207.328 239.958 206.248 240.948 204.922 241.43C203.152 242.07 201.432 242.73 199.722 243.38C188.832 247.52 177.582 251.79 160.792 250.47C143.292 249.08 128.712 252.93 119.732 261.31C112.732 267.79 109.322 276.8 109.432 288.1C109.439 288.799 109.308 289.492 109.046 290.14C108.785 290.788 108.399 291.378 107.909 291.877C107.42 292.376 106.837 292.773 106.194 293.046C105.551 293.32 104.861 293.464 104.162 293.47H104.112Z" fill="#173366"/>
<path d="M227.145 248.941L205.745 256.781C203.96 257.435 201.987 257.353 200.262 256.553C198.537 255.753 197.201 254.3 196.546 252.515L187.709 228.393C187.055 226.607 187.137 224.635 187.937 222.91C188.737 221.185 190.19 219.848 191.975 219.194L213.375 211.354L227.134 248.913L227.145 248.941Z" fill="#173366"/>
<path opacity="0.7" d="M227.145 248.941L205.745 256.781C203.96 257.435 201.987 257.353 200.262 256.553C198.537 255.753 197.201 254.3 196.546 252.515L187.709 228.393C187.055 226.607 187.137 224.635 187.937 222.91C188.737 221.185 190.19 219.848 191.975 219.194L213.375 211.354L227.134 248.913L227.145 248.941Z" fill="white"/>
<path opacity="0.2" d="M203.842 214.841L213.392 211.351L227.152 248.931L217.602 252.431C216.966 251.816 216.481 251.063 216.182 250.231L204.182 217.441C203.868 216.612 203.752 215.722 203.842 214.841Z" fill="#173366"/>
<path d="M234.837 220.711L233.898 221.055L236.189 227.308L237.128 226.964L234.837 220.711Z" fill="#173366"/>
<path d="M232.453 217.16L229.083 207.94C228.505 206.377 227.462 205.028 226.094 204.075C224.726 203.122 223.1 202.611 221.433 202.61C220.484 202.608 219.543 202.774 218.653 203.1L212.573 205.33L212.223 204.39L218.313 202.16C219.312 201.794 220.368 201.608 221.433 201.61C223.306 201.615 225.132 202.192 226.668 203.264C228.203 204.337 229.374 205.853 230.023 207.61L233.393 216.83L232.453 217.16Z" fill="#173366"/>
<path d="M227.311 251.635L236.241 248.405C239.158 247.35 240.668 244.129 239.613 241.211L227.492 207.7C226.436 204.783 223.216 203.273 220.298 204.328L211.368 207.558C208.45 208.614 206.941 211.834 207.996 214.752L220.117 248.263C221.172 251.181 224.393 252.69 227.311 251.635Z" fill="#173366"/>
<path d="M222.2 217.87C222.404 218.428 222.438 219.033 222.298 219.61C222.157 220.187 221.849 220.709 221.411 221.111C220.974 221.512 220.427 221.775 219.841 221.865C219.254 221.956 218.653 221.87 218.115 221.619C217.577 221.369 217.126 220.964 216.818 220.456C216.51 219.949 216.36 219.361 216.386 218.768C216.412 218.175 216.614 217.603 216.965 217.124C217.317 216.646 217.802 216.282 218.36 216.08C219.107 215.809 219.93 215.846 220.65 216.181C221.37 216.517 221.928 217.124 222.2 217.87Z" fill="#263238"/>
<path d="M229.67 238.26C229.873 238.817 229.907 239.422 229.766 239.998C229.625 240.575 229.317 241.096 228.88 241.497C228.443 241.898 227.897 242.161 227.311 242.252C226.725 242.343 226.125 242.258 225.587 242.007C225.049 241.757 224.597 241.353 224.289 240.847C223.98 240.34 223.829 239.753 223.854 239.161C223.879 238.568 224.079 237.996 224.429 237.517C224.779 237.038 225.263 236.674 225.82 236.47C226.191 236.334 226.584 236.273 226.978 236.29C227.372 236.306 227.759 236.4 228.116 236.567C228.474 236.733 228.795 236.968 229.062 237.259C229.328 237.549 229.535 237.889 229.67 238.26Z" fill="#263238"/>
<path d="M142.003 235.851L141.923 235.761C140.363 234.201 138.713 232.501 137.223 230.761C135.733 229.021 134.273 227.281 132.943 225.481C131.639 223.724 130.453 221.884 129.393 219.971C128.634 218.602 127.989 217.174 127.463 215.701C128.063 213.701 128.703 211.701 129.463 209.781C130.333 207.471 131.313 205.201 132.383 202.961C133.453 200.721 134.593 198.521 135.823 196.371C136.423 195.291 137.053 194.221 137.703 193.171L138.703 191.631C139.013 191.131 139.383 190.631 139.643 190.201L139.753 190.041C140.464 188.957 140.726 187.64 140.485 186.367C140.243 185.093 139.517 183.964 138.459 183.215C137.401 182.467 136.093 182.159 134.813 182.356C133.532 182.553 132.377 183.239 131.593 184.271C131.093 184.951 130.713 185.491 130.313 186.081C129.913 186.671 129.553 187.261 129.173 187.851C128.443 189.031 127.733 190.221 127.053 191.431C125.7 193.845 124.475 196.328 123.383 198.871C122.823 200.131 122.383 201.421 121.813 202.711C121.243 204.001 120.863 205.311 120.463 206.651C119.614 209.306 118.916 212.007 118.373 214.741V214.971C118.217 215.7 118.269 216.459 118.523 217.161C119.492 219.725 120.778 222.157 122.353 224.401C123.835 226.53 125.487 228.537 127.293 230.401C129.051 232.196 130.918 233.883 132.883 235.451C134.846 237.016 136.907 238.456 139.053 239.761C139.574 240.065 140.188 240.17 140.78 240.054C141.373 239.938 141.902 239.61 142.27 239.132C142.638 238.653 142.819 238.057 142.779 237.455C142.739 236.853 142.481 236.286 142.053 235.861L142.003 235.851Z" fill="#FF8B7B"/>
<path d="M153.62 240.82L153.49 240.56C153.075 239.694 152.464 238.935 151.706 238.345C150.948 237.755 150.062 237.349 149.12 237.16L141.53 235.62L137.82 237.47C138.22 241.63 144.16 244.12 144.16 244.12L145.85 246.05C146.42 246.697 147.209 247.111 148.065 247.213C148.921 247.314 149.785 247.096 150.49 246.6L152.49 245.17C153.163 244.696 153.645 243.998 153.852 243.202C154.059 242.406 153.977 241.562 153.62 240.82Z" fill="#FF8B7B"/>
<path d="M135.19 178.651C130.98 180.581 126.5 187.261 126.5 187.261L135.5 204.111C135.5 204.111 145.73 192.321 144.87 186.421C144.17 181.411 140.55 176.191 135.19 178.651Z" fill="#173366"/>
<g opacity="0.3">
<path d="M135.19 178.651C130.98 180.581 126.5 187.261 126.5 187.261L135.5 204.111C135.5 204.111 145.73 192.321 144.87 186.421C144.17 181.411 140.55 176.191 135.19 178.651Z" fill="white"/>
</g>
<path d="M423.289 399.43C414.479 399.43 405.819 397.62 401.619 392.14C381.739 366.14 381.919 313.84 382.089 263.23C382.189 235.98 384.339 210.23 381.309 190.23C379.529 178.44 373.309 170.35 367.029 166.17C357.709 160.01 344.909 163.32 339.439 164.73C338.758 164.921 338.045 164.973 337.343 164.885C336.641 164.796 335.964 164.569 335.351 164.216C334.738 163.863 334.202 163.391 333.773 162.828C333.345 162.264 333.033 161.622 332.857 160.937C332.68 160.252 332.641 159.538 332.743 158.838C332.845 158.138 333.086 157.466 333.451 156.86C333.817 156.254 334.299 155.727 334.87 155.31C335.442 154.893 336.091 154.594 336.779 154.43C343.609 152.66 359.629 148.53 372.889 157.29C381.839 163.2 389.579 173.75 391.829 188.64C394.979 209.44 392.829 235.57 392.729 263.23C392.559 312.06 392.389 362.55 410.069 385.64C411.499 387.5 417.069 389.17 426.319 388.69C427.139 388.69 427.939 388.6 428.729 388.53C428.371 387.806 428.186 387.008 428.189 386.2C428.189 384.789 428.75 383.436 429.747 382.438C430.745 381.441 432.098 380.88 433.509 380.88C445.139 380.88 451.259 381.88 452.439 387.2C452.779 388.73 452.959 392.57 447.339 395.2C443.139 397.17 433.119 399.43 423.289 399.43Z" fill="#173366"/>
<path d="M306.87 404.02L296.02 399.75L301.74 380.94L312.6 385.2L306.87 404.02Z" fill="#FFC3BD"/>
<path d="M295.759 398.6L307.999 403.4C308.154 403.463 308.284 403.576 308.367 403.721C308.45 403.866 308.483 404.035 308.459 404.2L307.259 411.82C307.228 412.005 307.156 412.179 307.048 412.332C306.94 412.485 306.8 412.611 306.637 412.702C306.474 412.793 306.292 412.847 306.106 412.859C305.919 412.87 305.733 412.84 305.559 412.77C302.489 411.5 297.679 409.4 293.789 407.87C291.399 406.93 286.849 405.43 283.539 404.13C280.229 402.83 281.089 399.39 282.539 399.63C289.129 400.69 291.649 399.56 294.279 398.58C294.757 398.398 295.287 398.405 295.759 398.6Z" fill="#263238"/>
<path opacity="0.2" d="M312.599 385.21L301.739 380.94L298.789 390.64L309.649 394.91L312.599 385.21Z" fill="black"/>
<path d="M326.17 239.61C326.17 239.61 316.35 288.15 312.6 312.09C308.38 338.92 297.23 387.93 297.23 387.93L311.66 393.6C311.66 393.6 332.27 343.42 335.14 319.12C343.79 299.37 360.99 241.25 360.99 241.25L326.17 239.61Z" fill="#173366"/>
<path d="M296.531 388.011L312.371 394.241L315.081 389.441L297.371 382.101L296.531 388.011Z" fill="#263238"/>
<path d="M292.651 398.81C292.099 398.638 291.62 398.286 291.291 397.81C291.2 397.634 291.152 397.438 291.152 397.24C291.152 397.042 291.2 396.846 291.291 396.67C291.332 396.561 291.402 396.466 291.494 396.396C291.586 396.325 291.696 396.281 291.811 396.27C292.861 396.16 294.811 398.72 295.001 399.02C295.023 399.053 295.034 399.091 295.034 399.13C295.034 399.169 295.023 399.207 295.001 399.24C294.98 399.273 294.95 399.299 294.915 399.315C294.879 399.331 294.84 399.336 294.801 399.33C294.068 399.235 293.347 399.061 292.651 398.81ZM292.121 396.72C292.041 396.68 291.951 396.663 291.861 396.67C291.801 396.67 291.731 396.67 291.661 396.84C291.595 396.959 291.56 397.094 291.56 397.23C291.56 397.367 291.595 397.501 291.661 397.62C291.951 398.15 292.951 398.62 294.401 398.86C293.792 398.001 293.017 397.273 292.121 396.72Z" fill="#173366"/>
<path d="M294.781 399.32C294.748 399.309 294.72 399.288 294.701 399.26C294.061 398.5 293.161 396.15 293.701 395.34C293.784 395.214 293.908 395.121 294.052 395.076C294.195 395.03 294.35 395.035 294.491 395.09C294.639 395.128 294.778 395.196 294.899 395.291C295.019 395.386 295.119 395.505 295.191 395.64C295.811 396.75 295.111 399.09 295.081 399.19C295.069 399.226 295.048 399.257 295.02 399.282C294.992 399.306 294.957 399.323 294.921 399.33C294.899 399.341 294.874 399.346 294.849 399.344C294.825 399.342 294.801 399.334 294.781 399.32ZM294.441 395.5H294.361C294.101 395.44 294.041 395.5 294.011 395.59C293.711 396.07 294.201 397.77 294.771 398.7C295.056 397.775 295.056 396.785 294.771 395.86C294.707 395.704 294.59 395.577 294.441 395.5Z" fill="#173366"/>
<path opacity="0.2" d="M347.34 269C341.9 275.74 339.75 292.92 339.77 307.24C343.44 297.13 347.65 284.29 351.35 272.63L347.34 269Z" fill="black"/>
<path d="M372.171 405.83H360.511L358.961 386.23H370.621L372.171 405.83Z" fill="#FFC3BD"/>
<path d="M359.848 404.851H372.998C373.167 404.849 373.331 404.906 373.462 405.012C373.593 405.118 373.684 405.266 373.718 405.431L375.388 412.951C375.427 413.134 375.425 413.324 375.38 413.507C375.336 413.689 375.251 413.859 375.132 414.004C375.013 414.149 374.862 414.265 374.692 414.344C374.522 414.424 374.336 414.463 374.148 414.461C370.828 414.401 365.598 414.201 361.418 414.201C358.838 414.201 354.058 414.471 350.508 414.471C346.958 414.471 346.508 410.961 347.938 410.641C354.468 409.211 356.408 407.251 358.488 405.371C358.863 405.037 359.347 404.853 359.848 404.851Z" fill="#263238"/>
<path opacity="0.2" d="M370.619 386.23H358.949L359.759 396.34H371.429L370.619 386.23Z" fill="black"/>
<path d="M340.289 240.221C340.289 240.221 346.749 294.311 348.109 313.781C349.999 340.881 357.309 394.381 357.309 394.381H372.809C372.809 394.381 374.469 339.741 371.669 315.431C375.529 294.221 374.309 241.851 374.309 241.851L340.289 240.221Z" fill="#173366"/>
<path d="M356.689 394.71H373.709L374.479 389.26L355.309 388.9L356.689 394.71Z" fill="#263238"/>
<path d="M357.001 406.18C356.425 406.223 355.851 406.072 355.371 405.75C355.222 405.619 355.106 405.455 355.033 405.271C354.96 405.086 354.932 404.887 354.951 404.69C354.951 404.572 354.984 404.456 355.046 404.356C355.107 404.255 355.196 404.174 355.301 404.12C356.241 403.64 358.971 405.32 359.301 405.51C359.336 405.53 359.364 405.559 359.382 405.595C359.399 405.63 359.406 405.671 359.401 405.71C359.392 405.75 359.372 405.787 359.344 405.817C359.316 405.847 359.28 405.869 359.241 405.88C358.508 406.064 357.757 406.165 357.001 406.18ZM355.741 404.43C355.652 404.424 355.562 404.442 355.481 404.48C355.431 404.48 355.371 404.56 355.361 404.71C355.34 404.845 355.354 404.982 355.401 405.11C355.449 405.238 355.528 405.351 355.631 405.44C356.091 405.83 357.201 405.88 358.631 405.59C357.761 405.023 356.79 404.629 355.771 404.43H355.741Z" fill="#173366"/>
<path d="M359.199 405.881H359.099C358.229 405.401 356.529 403.551 356.709 402.601C356.739 402.454 356.819 402.321 356.936 402.226C357.052 402.132 357.198 402.08 357.349 402.081C357.5 402.059 357.654 402.071 357.801 402.114C357.947 402.157 358.083 402.231 358.199 402.331C359.199 403.141 359.389 405.581 359.399 405.681C359.401 405.718 359.393 405.754 359.378 405.787C359.362 405.821 359.338 405.849 359.309 405.871C359.273 405.883 359.236 405.887 359.199 405.881ZM357.489 402.451H357.399C357.139 402.451 357.119 402.611 357.109 402.661C356.999 403.211 358.109 404.661 358.949 405.281C358.888 404.314 358.539 403.388 357.949 402.621C357.819 402.514 357.657 402.454 357.489 402.451Z" fill="#173366"/>
<path d="M345.64 165.631L336.3 165.511C333.16 165.511 330.04 165.411 326.95 165.361C326.01 165.361 325.09 165.301 324.16 165.261C324.22 165.261 324.26 165.151 324.31 165.101C324.97 164.401 325.63 163.681 326.31 162.991C326.65 162.631 326.984 162.281 327.31 161.941C327.62 161.601 328.02 161.221 328.23 160.941L329.08 159.861C329.75 159.006 330.134 157.962 330.177 156.877C330.221 155.792 329.921 154.721 329.321 153.815C328.722 152.91 327.852 152.217 326.836 151.833C325.82 151.45 324.709 151.397 323.66 151.681L321.81 152.181C321.24 152.351 320.67 152.541 320.1 152.731C318.98 153.121 317.88 153.551 316.79 154.021C314.594 154.991 312.471 156.12 310.44 157.401C308.336 158.745 306.346 160.26 304.49 161.931C302.526 163.717 300.747 165.697 299.18 167.841C298.785 168.376 298.45 168.952 298.18 169.561C297.252 171.689 297.206 174.099 298.054 176.261C298.901 178.423 300.573 180.16 302.7 181.091L303.61 181.491C305.665 182.375 307.793 183.077 309.97 183.591C311.87 184.081 313.67 184.401 315.44 184.701C317.21 185.001 318.94 185.241 320.66 185.451C322.38 185.661 324.08 185.821 325.78 185.961C329.17 186.261 332.53 186.411 335.88 186.511C339.23 186.611 342.51 186.611 345.99 186.451C348.704 186.335 351.265 185.164 353.128 183.188C354.991 181.211 356.009 178.586 355.965 175.87C355.92 173.154 354.817 170.563 352.891 168.649C350.964 166.734 348.366 165.648 345.65 165.621L345.64 165.631Z" fill="#FFC3BD"/>
<path d="M351.08 183.88C343.01 193.08 323.59 189.64 323.59 189.64L324.66 166.72C331.317 165.255 338.105 164.468 344.92 164.37C356.32 164.35 357.54 176.5 351.08 183.88Z" fill="#263238"/>
<path d="M329.54 176.83C329.06 180.53 328.54 185.51 328.23 192.21C324.02 213.51 322.45 228.6 326.17 239.61C329.11 243.24 367.42 242.54 374.31 241.84C378.31 231.94 378.73 203.52 379.2 179.63C379.259 176.338 378.136 173.134 376.036 170.599C373.935 168.063 370.996 166.365 367.75 165.81C359.129 164.282 350.334 163.986 341.63 164.93C338.575 165.278 335.724 166.639 333.533 168.796C331.342 170.952 329.936 173.781 329.54 176.83Z" fill="#263238"/>
<path opacity="0.2" d="M366.711 191.37C366.841 198.65 372.121 210.28 378.061 216.18C378.421 210.03 378.651 203.36 378.831 196.63L366.711 191.37Z" fill="black"/>
<path d="M400.089 205.52L399.749 204.72C398.351 201.384 396.717 198.153 394.859 195.05C393.079 192.05 391.159 189.22 389.169 186.49C387.179 183.76 385.069 181.15 382.909 178.61C381.809 177.35 380.719 176.09 379.569 174.87L377.839 173.05L375.999 171.19C374.072 169.287 371.479 168.209 368.77 168.185C366.062 168.161 363.45 169.193 361.489 171.061C359.529 172.93 358.372 175.488 358.266 178.195C358.159 180.901 359.111 183.543 360.919 185.56L361.219 185.89L367.089 192.42C369.089 194.64 370.999 196.9 372.899 199.15C373.819 200.28 374.769 201.41 375.629 202.56C376.489 203.71 377.399 204.82 378.259 205.96C379.499 207.69 380.699 209.41 381.769 211.1C381.605 211.953 381.398 212.798 381.149 213.63C380.43 216.052 379.586 218.436 378.619 220.77C377.619 223.24 376.559 225.77 375.459 228.26C374.359 230.75 373.179 233.35 372.129 235.85L372.029 236.07C371.568 237.175 371.498 238.404 371.831 239.554C372.163 240.705 372.878 241.707 373.857 242.396C374.836 243.085 376.021 243.419 377.216 243.344C378.411 243.268 379.545 242.787 380.429 241.98C382.635 239.935 384.728 237.772 386.699 235.5C388.699 233.253 390.576 230.887 392.329 228.4C393.219 227.15 394.069 225.85 394.909 224.5C395.782 223.127 396.579 221.709 397.299 220.25C398.109 218.659 398.81 217.015 399.399 215.33C400.166 213.172 400.598 210.909 400.679 208.62C400.705 207.556 400.504 206.5 400.089 205.52Z" fill="#FFC3BD"/>
<path d="M368.432 165.94C381.922 168.25 390.712 186.51 390.712 186.51L374.452 204C374.452 204 365.082 194.46 359.452 185.62C353.382 176 358.772 164.3 368.432 165.94Z" fill="#263238"/>
<path d="M343.789 137.15C341.529 133.36 340.789 128.15 344.929 122.84C344.122 122.942 343.303 122.806 342.572 122.451C341.841 122.096 341.228 121.537 340.809 120.84C345.342 117.132 351.042 115.148 356.899 115.24C368.999 115.24 369.899 119.91 369.489 123.1C377.769 123.63 383.809 145.16 362.819 148.97C350.809 136.32 343.789 137.15 343.789 137.15Z" fill="#263238"/>
<path d="M368.73 123.491C368.73 123.491 372.1 120.051 367.91 115.891C368.849 116.148 369.706 116.645 370.397 117.332C371.087 118.019 371.588 118.873 371.85 119.811C372.44 122.231 370.81 124.171 368.73 123.491Z" fill="#263238"/>
<path d="M364.089 146.341C363.769 152.971 363.169 160.511 364.279 165.801C362.559 168.511 358.159 171.631 350.279 172.331C347.479 170.741 343.779 166.851 345.069 164.851C348.419 162.701 349.839 156.191 348.879 151.321L364.089 146.341Z" fill="#FFC3BD"/>
<path opacity="0.2" d="M360.249 147.591L348.859 151.321C349.247 153.395 349.264 155.521 348.909 157.601C352.309 157.491 357.019 154.931 358.789 152.531C359.366 151.856 359.794 151.067 360.046 150.216C360.297 149.365 360.367 148.471 360.249 147.591Z" fill="black"/>
<path d="M367.409 135.84C365.299 143.97 364.479 148.84 359.499 152.25C352.009 157.38 342.589 151.63 342.219 143.04C341.899 135.3 345.399 123.3 354.099 121.59C356.015 121.206 357.997 121.318 359.857 121.915C361.717 122.513 363.394 123.576 364.728 125.004C366.061 126.432 367.008 128.177 367.477 130.073C367.946 131.97 367.923 133.955 367.409 135.84Z" fill="#FFC3BD"/>
<path d="M365.731 124.2C362.161 126.74 357.731 137.5 366.731 141.82C374.811 134.72 372.721 124.2 365.731 124.2Z" fill="#263238"/>
<path d="M367.79 125.49C369.32 118.41 351.45 114.75 345.79 123.02C343.87 128 366.71 132.4 367.79 125.49Z" fill="#263238"/>
<path d="M354.461 144.47C352.605 143.631 350.614 143.127 348.581 142.98C348.553 142.98 348.525 142.986 348.499 142.997C348.472 143.009 348.449 143.025 348.429 143.045C348.41 143.066 348.394 143.09 348.384 143.117C348.374 143.144 348.37 143.172 348.371 143.2C348.383 143.265 348.415 143.324 348.464 143.368C348.513 143.411 348.576 143.437 348.641 143.44C350.59 143.581 352.499 144.062 354.281 144.86C354.337 144.885 354.401 144.887 354.458 144.867C354.516 144.846 354.563 144.805 354.591 144.75C354.602 144.724 354.608 144.695 354.607 144.666C354.607 144.637 354.6 144.608 354.588 144.582C354.575 144.556 354.558 144.532 354.536 144.513C354.514 144.494 354.489 144.479 354.461 144.47Z" fill="#263238"/>
<path d="M369.359 144.731C367.91 146.269 365.911 147.171 363.799 147.241C360.999 147.301 360.289 144.631 361.639 142.351C362.859 140.351 365.779 137.791 368.319 138.811C370.859 139.831 371.119 142.821 369.359 144.731Z" fill="#FFC3BD"/>
<path d="M354.481 135.7C354.351 136.37 353.891 136.85 353.481 136.76C353.071 136.67 352.801 136.06 352.931 135.39C353.061 134.72 353.521 134.25 353.931 134.39C354.341 134.53 354.611 135 354.481 135.7Z" fill="#263238"/>
<path d="M346.909 134.23C346.779 134.9 346.319 135.37 345.909 135.29C345.499 135.21 345.219 134.59 345.349 133.92C345.479 133.25 345.939 132.77 346.349 132.86C346.759 132.95 346.999 133.56 346.909 134.23Z" fill="#263238"/>
<path d="M349.25 135C348.05 136.893 346.596 138.612 344.93 140.11C345.93 141.44 348.14 141.18 348.14 141.18L349.25 135Z" fill="#ED847E"/>
<path d="M353.389 131.811C353.46 131.795 353.534 131.798 353.604 131.819C353.674 131.84 353.738 131.878 353.789 131.931C354.11 132.319 354.518 132.625 354.981 132.825C355.443 133.025 355.946 133.113 356.449 133.081C356.555 133.066 356.662 133.094 356.748 133.157C356.834 133.221 356.892 133.315 356.909 133.421C356.917 133.473 356.915 133.526 356.902 133.577C356.89 133.628 356.867 133.676 356.835 133.718C356.803 133.76 356.763 133.796 356.718 133.822C356.672 133.848 356.621 133.865 356.569 133.871C355.934 133.922 355.296 133.821 354.708 133.575C354.12 133.33 353.599 132.948 353.189 132.461C353.151 132.424 353.122 132.381 353.101 132.333C353.081 132.285 353.07 132.233 353.07 132.181C353.07 132.129 353.081 132.077 353.101 132.029C353.122 131.981 353.151 131.937 353.189 131.901C353.248 131.857 353.316 131.826 353.389 131.811Z" fill="#263238"/>
<path d="M344.572 129.591C344.489 129.573 344.415 129.527 344.362 129.461C344.328 129.419 344.304 129.371 344.289 129.319C344.274 129.268 344.27 129.214 344.276 129.161C344.283 129.108 344.3 129.056 344.327 129.01C344.354 128.963 344.389 128.923 344.432 128.891C344.923 128.488 345.503 128.208 346.124 128.074C346.745 127.94 347.389 127.956 348.002 128.12C348.103 128.155 348.187 128.227 348.236 128.323C348.284 128.418 348.294 128.528 348.262 128.631C348.222 128.727 348.148 128.806 348.054 128.852C347.96 128.898 347.853 128.908 347.752 128.881C347.263 128.756 346.752 128.749 346.26 128.86C345.768 128.971 345.31 129.198 344.922 129.521C344.875 129.563 344.818 129.591 344.757 129.603C344.695 129.616 344.631 129.611 344.572 129.591Z" fill="#263238"/>
<path d="M376.852 235.56L368.262 235.5L372.702 245.36C372.702 245.36 380.032 243.79 379.632 239.81L376.852 235.56Z" fill="#FFC3BD"/>
<path d="M363.891 242.27L365.301 245.05C365.68 245.79 366.321 246.362 367.1 246.655C367.879 246.947 368.738 246.938 369.511 246.63L372.701 245.36L368.261 235.5L364.851 238.1C364.226 238.572 363.788 239.248 363.612 240.01C363.437 240.773 363.535 241.573 363.891 242.27Z" fill="#FFC3BD"/>
<path d="M311.459 228.3C310.421 228.29 309.409 227.976 308.547 227.399C307.685 226.821 307.01 226.004 306.605 225.049C306.201 224.093 306.084 223.04 306.269 222.019C306.455 220.998 306.934 220.053 307.649 219.3C311.469 215.36 314.919 212.3 317.959 209.63C325.299 203.16 327.829 200.63 327.589 195.78C327.229 192.788 326.593 189.835 325.689 186.96C323.499 178.91 321.019 169.8 325.269 162.49C327.549 158.56 331.419 155.87 336.779 154.49C338.134 154.169 339.561 154.392 340.754 155.111C341.947 155.83 342.81 156.988 343.158 158.336C343.506 159.685 343.312 161.116 342.616 162.323C341.921 163.53 340.78 164.416 339.439 164.79C335.669 165.79 334.759 167.32 334.439 167.84C332.439 171.29 334.369 178.43 335.929 184.16C337.058 187.774 337.816 191.493 338.189 195.26C338.689 205.51 332.639 210.85 324.969 217.61C322.079 220.17 318.789 223.07 315.249 226.71C314.755 227.215 314.165 227.616 313.514 227.889C312.863 228.162 312.164 228.302 311.459 228.3Z" fill="#173366"/>
<path d="M323.131 151.9L331.451 149.771L329.511 160.411C329.511 160.411 322.021 160.641 321.461 156.691L323.131 151.9Z" fill="#FFC3BD"/>
<path d="M337.292 155.411L336.652 158.191C336.455 159.04 335.948 159.785 335.23 160.279C334.512 160.773 333.635 160.98 332.772 160.861L329.512 160.411L331.452 149.771L335.272 151.421C336.022 151.744 336.636 152.32 337.005 153.049C337.374 153.779 337.475 154.614 337.292 155.411Z" fill="#FFC3BD"/>
<path d="M308.488 210.803L308.261 210.577C307.25 209.566 305.61 209.566 304.599 210.578L275.11 240.076C274.099 241.088 274.099 242.728 275.111 243.739L275.337 243.965C276.349 244.977 277.989 244.976 279 243.965L308.488 214.466C309.5 213.455 309.499 211.815 308.488 210.803Z" fill="#263238"/>
<path d="M323.855 226.152L323.628 225.926C322.617 224.915 320.977 224.915 319.965 225.926L290.472 255.42C289.461 256.431 289.461 258.071 290.472 259.082L290.698 259.309C291.71 260.32 293.35 260.32 294.361 259.309L323.855 229.815C324.866 228.804 324.866 227.164 323.855 226.152Z" fill="#263238"/>
<path d="M284.414 221.783L305.196 201.001C305.862 200.336 306.652 199.807 307.522 199.447C308.392 199.087 309.324 198.901 310.266 198.901C311.207 198.901 312.14 199.087 313.01 199.447C313.88 199.807 314.67 200.336 315.336 201.001L333.501 219.167C334.167 219.833 334.695 220.623 335.056 221.493C335.416 222.363 335.601 223.295 335.601 224.237C335.601 225.178 335.416 226.111 335.056 226.981C334.695 227.851 334.167 228.641 333.501 229.307L312.72 250.089L284.414 221.783Z" fill="#173366"/>
<path opacity="0.7" d="M284.414 221.783L305.196 201.001C305.862 200.336 306.652 199.807 307.522 199.447C308.392 199.087 309.324 198.901 310.266 198.901C311.207 198.901 312.14 199.087 313.01 199.447C313.88 199.807 314.67 200.336 315.336 201.001L333.501 219.167C334.167 219.833 334.695 220.623 335.056 221.493C335.416 222.363 335.601 223.295 335.601 224.237C335.601 225.178 335.416 226.111 335.056 226.981C334.695 227.851 334.167 228.641 333.501 229.307L312.72 250.089L284.414 221.783Z" fill="white"/>
<path opacity="0.2" d="M291.579 214.561L284.379 221.751L312.689 250.061L319.879 242.861C319.593 242.023 319.117 241.264 318.489 240.641L293.799 216.001C293.181 215.354 292.421 214.861 291.579 214.561Z" fill="#173366"/>
<path d="M283.166 218.124L282.65 218.64C280.455 220.835 280.455 224.393 282.65 226.588L307.858 251.797C310.053 253.991 313.611 253.991 315.806 251.797L316.322 251.28C318.517 249.086 318.517 245.527 316.322 243.332L291.114 218.124C288.919 215.929 285.361 215.929 283.166 218.124Z" fill="#173366"/>
</svg>
