<svg width="34" height="35" viewBox="0 0 34 35" fill="none" xmlns="http://www.w3.org/2000/svg">
<rect x="0.164062" y="0.888672" width="33.163" height="33.163" rx="8" fill="white"/>
<g clip-path="url(#clip0_242_12116)">
<path fill-rule="evenodd" clip-rule="evenodd" d="M22.642 12.522C23.2876 12.6959 23.7968 13.2049 23.9705 13.8507C24.2935 15.0302 24.281 17.4888 24.281 17.4888C24.281 17.4888 24.281 19.9348 23.9706 21.1144C23.7968 21.7601 23.2877 22.2692 22.642 22.443C21.4624 22.7535 16.744 22.7535 16.744 22.7535C16.744 22.7535 12.038 22.7535 10.8461 22.4307C10.2003 22.2568 9.69132 21.7477 9.51743 21.102C9.20703 19.9348 9.20703 17.4764 9.20703 17.4764C9.20703 17.4764 9.20703 15.0302 9.51743 13.8507C9.6912 13.2051 10.2128 12.6835 10.846 12.5097C12.0256 12.1992 16.7439 12.1992 16.7439 12.1992C16.7439 12.1992 21.4624 12.1992 22.642 12.522ZM19.1662 17.4768L15.2425 19.7367V15.217L19.1662 17.4768Z" fill="black"/>
</g>
<defs>
<clipPath id="clip0_242_12116">
<rect width="15.0741" height="15.0741" fill="white" transform="translate(9.20703 9.93359)"/>
</clipPath>
</defs>
</svg>
