<svg width="36" height="36" viewBox="0 0 36 36" fill="none" xmlns="http://www.w3.org/2000/svg">
<path d="M16.7597 9.78811C18.4985 10.2177 20.0988 10.9982 21.4812 12.0515L15.2677 18.265V22.4022L23.5948 14.0751C25.4651 16.3187 26.5894 19.2044 26.5894 22.3537C26.5894 29.5016 20.7949 35.2968 13.6463 35.2968C6.49828 35.2968 0.703125 29.5016 0.703125 22.3537C0.703125 16.2358 4.94789 11.1107 10.6523 9.75928" stroke="#173366" stroke-width="1.2" stroke-miterlimit="10" stroke-linecap="round" stroke-linejoin="round"/>
<path d="M15.2676 22.4024L26.7941 10.8759L24.7254 8.80713L15.2676 18.2649V22.4024Z" stroke="#173366" stroke-width="1.2" stroke-miterlimit="10" stroke-linecap="round" stroke-linejoin="round"/>
<path d="M23.2159 22.354C23.2159 27.6384 18.9311 31.9225 13.6467 31.9225C8.36726 31.9226 4.07805 27.6334 4.07813 22.3538C4.0782 17.0694 8.36227 12.7847 13.6467 12.7847C13.6529 12.7847 13.659 12.7847 13.6652 12.7847C14.6432 12.7865 15.4985 13.4254 15.825 14.3472C16.7864 17.0621 18.9385 19.2142 21.6534 20.1756C22.5753 20.5021 23.2141 21.3574 23.2159 22.3354C23.2159 22.3417 23.2159 22.3479 23.2159 22.354Z" stroke="#173366" stroke-width="1.2" stroke-miterlimit="10" stroke-linecap="round" stroke-linejoin="round"/>
<path d="M9.95202 24.405C11.1811 24.405 12.1775 23.4087 12.1775 22.1796C12.1775 20.9505 11.1811 19.9541 9.95202 19.9541C8.72294 19.9541 7.72656 20.9505 7.72656 22.1796C7.72656 23.4087 8.72294 24.405 9.95202 24.405Z" stroke="#173366" stroke-width="1.2" stroke-miterlimit="10" stroke-linecap="round" stroke-linejoin="round"/>
<circle cx="13.6465" cy="27.5229" r="0.703125" fill="#173366"/>
<circle cx="18" cy="24.9717" r="0.703125" fill="#173366"/>
<path d="M24.7264 8.80709L22.7637 6.84431L25.2866 4.32129L31.2919 10.3267L28.7616 12.857L24.7264 8.80709Z" stroke="#173366" stroke-width="1.2" stroke-miterlimit="10" stroke-linecap="round" stroke-linejoin="round"/>
<path d="M35.2965 11.0827C34.213 11.8252 32.7237 11.7239 31.7492 10.774L31.2908 10.3268L25.014 4.05C24.1076 3.14367 23.9501 1.77188 24.5422 0.703125" stroke="#173366" stroke-width="1.2" stroke-miterlimit="10" stroke-linecap="round" stroke-linejoin="round"/>
<circle cx="13.7754" cy="9.41113" r="0.703125" fill="#173366"/>
</svg>
