<svg width="34" height="34" viewBox="0 0 34 34" fill="none" xmlns="http://www.w3.org/2000/svg">
<path d="M30.7933 12.23L9.01665 1.34001C8.10187 0.882608 7.08536 0.666638 6.06363 0.712607C5.04191 0.758577 4.0489 1.06496 3.1789 1.60266C2.30889 2.14036 1.59078 2.89153 1.09274 3.78483C0.59471 4.67814 0.333291 5.68392 0.333313 6.70667V27.2933C0.333291 28.3161 0.59471 29.3219 1.09274 30.2152C1.59078 31.1085 2.30889 31.8597 3.1789 32.3974C4.0489 32.9351 5.04191 33.2414 6.06363 33.2874C7.08536 33.3334 8.10187 33.1174 9.01665 32.66L30.7933 21.77C34.7267 19.8033 34.7267 14.1967 30.7933 12.23Z" fill="white"/>
</svg>
