<svg width="60" height="60" viewBox="0 0 60 60" fill="none" xmlns="http://www.w3.org/2000/svg">
<circle cx="30" cy="30" r="30" fill="white" fill-opacity="0.1"/>
<path d="M27.8692 31.0065C27.2164 29.2605 27.0631 26.6691 28.6636 25.3635C29.4304 24.7383 30.2444 23.9754 30.2404 22.9136C30.2365 21.3643 28.695 20.8098 27.8378 19.7835C27.1771 18.9891 26.8193 17.8724 27.0474 16.8303C27.1614 16.3033 27.4563 15.8944 27.7159 15.4343C27.8928 15.1236 28.3214 14.5377 28.2428 14.1523" stroke="black" stroke-width="1.5" stroke-miterlimit="10" stroke-linecap="round" stroke-linejoin="round"/>
<path d="M38.5438 25.2596L38.5437 25.2595C37.9276 24.5812 37.0528 24.2395 36.1934 24.1806C35.3201 24.1207 34.5518 24.3571 34.1412 24.7195C33.842 24.9858 33.6723 25.182 33.5652 25.333C33.4604 25.4809 33.4057 25.5984 33.3408 25.7397L33.3401 25.7412C33.2775 25.8805 33.2006 26.0517 33.0468 26.2508C32.8963 26.4458 32.6864 26.6504 32.3696 26.9006L32.3686 26.9013C31.9918 27.1974 31.7814 27.6312 31.7811 28.0919C31.7828 28.486 31.9649 28.9151 32.2714 29.2975C32.5781 29.6802 32.969 29.9648 33.3065 30.0894L33.3088 30.0903C33.6744 30.2274 33.887 30.6288 33.7691 31.0181L33.7687 31.0192C33.6457 31.4219 33.2013 31.6689 32.7793 31.5059C31.6284 31.0841 30.6383 30.2148 30.0743 29.078L30.0742 29.0779C29.969 28.8657 29.6996 28.7863 29.4934 28.9126L29.4931 28.9127C29.3295 29.0127 29.2586 29.2049 29.3102 29.3766L29.3114 29.3806L29.3113 29.3806C29.508 30.0563 29.848 30.694 30.3181 31.2503L30.9302 31.9745L29.9868 32.0704C29.7929 32.0902 29.6276 32.1297 29.5046 32.1663L29.1769 32.2638L28.9672 31.9937C28.7746 31.7456 28.6002 31.4829 28.4374 31.2376L28.4333 31.2314C28.2657 30.979 28.1098 30.7446 27.9416 30.5276C27.6089 30.0985 27.2575 29.7775 26.7767 29.6115L26.7688 29.6088L26.761 29.6058C26.3469 29.4472 25.6839 29.4326 24.6711 29.6619L24.2005 29.7685L24.0773 29.302C23.9894 28.9691 23.6293 28.7874 23.3063 28.9177C23.0493 29.0234 22.9047 29.294 22.9585 29.5652L23.0209 29.8617L23.0217 29.8655L23.0217 29.8655C23.1055 30.2797 23.4607 30.5822 23.8866 30.5975L23.8924 30.5977L23.8924 30.5978C23.9685 30.6014 24.1755 30.6071 24.394 30.6131L24.4084 30.6135C24.6142 30.6192 24.8274 30.625 24.9169 30.6291C25.5174 30.6543 26.0329 31.0612 26.1882 31.6449L38.5438 25.2596ZM38.5438 25.2596C40.4356 27.342 39.4075 30.6431 36.3456 31.5497L36.1745 31.6004L36.0741 31.748C35.0588 33.2411 33.6654 34.3306 32.1487 34.8386L32.1486 34.8386C30.6814 35.3301 29.2554 35.2258 28.2179 34.6212L28.2175 34.621M38.5438 25.2596L28.2175 34.621M28.2175 34.621C27.1699 34.0115 26.5227 32.9012 26.1882 31.645L28.2175 34.621Z" fill="#C4DBFD" stroke="black"/>
<path d="M29.9275 46.0991C39.0078 46.0991 46.3688 38.8913 46.3688 30C46.3688 21.1087 39.0078 13.9009 29.9275 13.9009C20.8473 13.9009 13.4863 21.1087 13.4863 30C13.4863 38.8913 20.8473 46.0991 29.9275 46.0991Z" stroke="black" stroke-width="1.5" stroke-miterlimit="10" stroke-linecap="round" stroke-linejoin="round"/>
<path d="M29.9286 50C41.2111 50 50.3573 41.0457 50.3573 30C50.3573 18.9543 41.2111 10 29.9286 10C18.6462 10 9.5 18.9543 9.5 30C9.5 41.0457 18.6462 50 29.9286 50Z" stroke="black" stroke-width="1.5" stroke-miterlimit="10" stroke-linecap="round" stroke-linejoin="round"/>
</svg>
