<svg width="66" height="66" viewBox="0 0 66 66" fill="none" xmlns="http://www.w3.org/2000/svg">
<g clip-path="url(#clip0_141_6218)">
<path d="M33 65.5C50.9493 65.5 65.5 50.9493 65.5 33C65.5 15.0507 50.9493 0.5 33 0.5C15.0507 0.5 0.5 15.0507 0.5 33C0.5 50.9493 15.0507 65.5 33 65.5Z" stroke="#D9D9D9"/>
<path d="M32.0566 25.085C33.7954 25.5146 35.3957 26.2951 36.7781 27.3483L30.5645 33.5619V37.699L38.8916 29.3719C40.762 31.6156 41.8863 34.5012 41.8863 37.6505C41.8863 44.7985 36.0918 50.5937 28.9431 50.5937C21.7952 50.5937 16 44.7985 16 37.6505C16 31.5326 20.2448 26.4076 25.9492 25.0562" stroke="#173366" stroke-width="1.2" stroke-miterlimit="10" stroke-linecap="round" stroke-linejoin="round"/>
<path d="M30.5645 37.6993L42.091 26.1727L40.0223 24.104L30.5645 33.5618V37.6993Z" stroke="#173366" stroke-width="1.2" stroke-miterlimit="10" stroke-linecap="round" stroke-linejoin="round"/>
<path d="M38.5128 37.6509C38.5128 42.9353 34.228 47.2193 28.9436 47.2194C23.6641 47.2195 19.3749 42.9303 19.375 37.6507C19.3751 32.3663 23.6591 28.0815 28.9435 28.0815C28.9497 28.0815 28.9559 28.0815 28.962 28.0815C29.9401 28.0834 30.7954 28.7222 31.1218 29.6441C32.0833 32.359 34.2353 34.5111 36.9502 35.4725C37.8722 35.799 38.511 36.6543 38.5128 37.6323C38.5128 37.6386 38.5128 37.6447 38.5128 37.6509Z" stroke="#173366" stroke-width="1.2" stroke-miterlimit="10" stroke-linecap="round" stroke-linejoin="round"/>
<path d="M25.2489 39.7019C26.478 39.7019 27.4744 38.7055 27.4744 37.4764C27.4744 36.2473 26.478 35.251 25.2489 35.251C24.0198 35.251 23.0234 36.2473 23.0234 37.4764C23.0234 38.7055 24.0198 39.7019 25.2489 39.7019Z" stroke="#173366" stroke-width="1.2" stroke-miterlimit="10" stroke-linecap="round" stroke-linejoin="round"/>
<circle cx="28.9434" cy="42.8198" r="0.703125" fill="#173366"/>
<circle cx="33.2969" cy="40.2686" r="0.703125" fill="#173366"/>
<path d="M40.0233 24.104L38.0605 22.1412L40.5835 19.6182L46.5888 25.6236L44.0585 28.1539L40.0233 24.104Z" stroke="#173366" stroke-width="1.2" stroke-miterlimit="10" stroke-linecap="round" stroke-linejoin="round"/>
<path d="M50.5933 26.3795C49.5098 27.122 48.0206 27.0208 47.0461 26.0709L46.5876 25.6237L40.3108 19.3469C39.4045 18.4405 39.247 17.0688 39.839 16" stroke="#173366" stroke-width="1.2" stroke-miterlimit="10" stroke-linecap="round" stroke-linejoin="round"/>
<circle cx="29.0723" cy="24.708" r="0.703125" fill="#173366"/>
</g>
<defs>
<clipPath id="clip0_141_6218">
<rect width="66" height="66" fill="white"/>
</clipPath>
</defs>
</svg>
