<svg width="34" height="35" viewBox="0 0 34 35" fill="none" xmlns="http://www.w3.org/2000/svg">
<rect x="0.324219" y="0.888672" width="33.163" height="33.163" rx="8" fill="white"/>
<g clip-path="url(#clip0_242_12118)">
<path d="M24.4274 14.3654C24.392 13.5645 24.2625 13.0138 24.077 12.5367C23.8856 12.0302 23.5911 11.5768 23.2053 11.1998C22.8283 10.817 22.3719 10.5195 21.8713 10.3311C21.3914 10.1456 20.8436 10.0161 20.0427 9.98076C19.2358 9.94245 18.9796 9.93359 16.933 9.93359C14.8864 9.93359 14.6303 9.94245 13.8263 9.97776C13.0254 10.0131 12.4748 10.1427 11.9977 10.3281C11.4912 10.5195 11.0377 10.814 10.6608 11.1998C10.2779 11.5768 9.9806 12.0332 9.79207 12.5338C9.60653 13.0138 9.47701 13.5615 9.44169 14.3624C9.40339 15.1693 9.39453 15.4255 9.39453 17.4721C9.39453 19.5187 9.40339 19.7749 9.4387 20.5788C9.47402 21.3797 9.60365 21.9304 9.78919 22.4075C9.9806 22.914 10.2779 23.3674 10.6608 23.7444C11.0377 24.1272 11.4941 24.4247 11.9947 24.6131C12.4748 24.7986 13.0224 24.9281 13.8235 24.9634C14.6273 24.9989 14.8836 25.0076 16.9302 25.0076C18.9767 25.0076 19.2329 24.9989 20.0368 24.9634C20.8378 24.9281 21.3884 24.7986 21.8654 24.6131C22.8785 24.2214 23.6794 23.4205 24.0711 22.4075C24.2565 21.9275 24.3862 21.3797 24.4215 20.5788C24.4568 19.7749 24.4657 19.5187 24.4657 17.4721C24.4657 15.4255 24.4627 15.1693 24.4274 14.3654ZM23.0699 20.5199C23.0375 21.2561 22.9138 21.6536 22.8107 21.9186C22.5575 22.5753 22.0363 23.0965 21.3796 23.3498C21.1145 23.4529 20.7141 23.5765 19.9808 23.6089C19.1857 23.6443 18.9473 23.653 16.936 23.653C14.9247 23.653 14.6833 23.6443 13.8911 23.6089C13.1549 23.5765 12.7574 23.4529 12.4924 23.3498C12.1656 23.229 11.8681 23.0376 11.6267 22.7873C11.3764 22.5429 11.1849 22.2484 11.0642 21.9216C10.9611 21.6566 10.8374 21.2561 10.8051 20.5229C10.7697 19.7278 10.761 19.4892 10.761 17.478C10.761 15.4667 10.7697 15.2252 10.8051 14.4332C10.8374 13.697 10.9611 13.2994 11.0642 13.0344C11.1849 12.7075 11.3764 12.4102 11.6296 12.1686C11.874 11.9183 12.1684 11.7269 12.4953 11.6062C12.7604 11.5032 13.1609 11.3795 13.8941 11.3471C14.6892 11.3118 14.9277 11.3029 16.9389 11.3029C18.9532 11.3029 19.1916 11.3118 19.9838 11.3471C20.72 11.3795 21.1175 11.5032 21.3826 11.6062C21.7093 11.7269 22.0068 11.9183 22.2483 12.1686C22.4986 12.413 22.69 12.7075 22.8107 13.0344C22.9138 13.2994 23.0375 13.6999 23.0699 14.4332C23.1052 15.2282 23.1141 15.4667 23.1141 17.478C23.1141 19.4892 23.1052 19.7248 23.0699 20.5199Z" fill="black"/>
<path d="M16.9309 13.5996C14.7931 13.5996 13.0586 15.334 13.0586 17.4719C13.0586 19.6098 14.7931 21.3442 16.9309 21.3442C19.0688 21.3442 20.8032 19.6098 20.8032 17.4719C20.8032 15.334 19.0688 13.5996 16.9309 13.5996ZM16.9309 19.9838C15.544 19.9838 14.419 18.8589 14.419 17.4719C14.419 16.0849 15.544 14.9601 16.9309 14.9601C18.3179 14.9601 19.4428 16.0849 19.4428 17.4719C19.4428 18.8589 18.3179 19.9838 16.9309 19.9838Z" fill="black"/>
<path d="M21.8628 13.447C21.8628 13.9462 21.458 14.351 20.9587 14.351C20.4595 14.351 20.0547 13.9462 20.0547 13.447C20.0547 12.9476 20.4595 12.543 20.9587 12.543C21.458 12.543 21.8628 12.9476 21.8628 13.447Z" fill="black"/>
</g>
<defs>
<clipPath id="clip0_242_12118">
<rect width="15.0741" height="15.0741" fill="white" transform="translate(9.36719 9.93359)"/>
</clipPath>
</defs>
</svg>
