<svg width="120" height="120" viewBox="0 0 120 120" fill="none" xmlns="http://www.w3.org/2000/svg">
<g filter="url(#filter0_d_814_4340)">
<circle cx="60" cy="60" r="30" fill="#25D366"/>
</g>
<path fill-rule="evenodd" clip-rule="evenodd" d="M60 47.5C53.0963 47.5 47.5 53.0963 47.5 60C47.5 62.3625 48.1563 64.575 49.2975 66.46L48.1825 70.25C48.1185 70.4676 48.1143 70.6984 48.1703 70.9182C48.2263 71.138 48.3406 71.3387 48.501 71.4991C48.6613 71.6594 48.862 71.7737 49.0818 71.8297C49.3016 71.8857 49.5324 71.8815 49.75 71.8175L53.54 70.7025C55.4883 71.8814 57.7228 72.5031 60 72.5C66.9037 72.5 72.5 66.9037 72.5 60C72.5 53.0963 66.9037 47.5 60 47.5ZM57.1725 62.8287C59.7012 65.3562 62.115 65.69 62.9675 65.7212C64.2637 65.7687 65.5262 64.7788 66.0175 63.63C66.0795 63.4871 66.102 63.3302 66.0827 63.1756C66.0633 63.021 66.0028 62.8745 65.9075 62.7513C65.2225 61.8763 64.2963 61.2475 63.3913 60.6225C63.2023 60.4919 62.9701 60.4394 62.7433 60.4763C62.5166 60.5131 62.3129 60.6363 62.175 60.82L61.425 61.9638C61.3856 62.0252 61.3241 62.0693 61.2532 62.087C61.1824 62.1047 61.1074 62.0945 61.0438 62.0588C60.535 61.7675 59.7938 61.2725 59.2613 60.74C58.7288 60.2075 58.2638 59.5 58.0025 59.0237C57.9701 58.9632 57.9607 58.893 57.9761 58.8262C57.9915 58.7593 58.0307 58.7003 58.0862 58.66L59.2412 57.8025C59.4061 57.6592 59.5125 57.4602 59.5401 57.2436C59.5678 57.0269 59.5148 56.8076 59.3912 56.6275C58.8312 55.8075 58.1788 54.765 57.2325 54.0737C57.1104 53.9852 56.9673 53.9301 56.8174 53.9136C56.6675 53.8972 56.5159 53.9201 56.3775 53.98C55.2275 54.4725 54.2325 55.735 54.28 57.0337C54.3112 57.8862 54.645 60.3 57.1725 62.8287Z" fill="white"/>
<defs>
<filter id="filter0_d_814_4340" x="0" y="0" width="120" height="120" filterUnits="userSpaceOnUse" color-interpolation-filters="sRGB">
<feFlood flood-opacity="0" result="BackgroundImageFix"/>
<feColorMatrix in="SourceAlpha" type="matrix" values="0 0 0 0 0 0 0 0 0 0 0 0 0 0 0 0 0 0 127 0" result="hardAlpha"/>
<feOffset/>
<feGaussianBlur stdDeviation="15"/>
<feComposite in2="hardAlpha" operator="out"/>
<feColorMatrix type="matrix" values="0 0 0 0 0 0 0 0 0 0 0 0 0 0 0 0 0 0 0.06 0"/>
<feBlend mode="normal" in2="BackgroundImageFix" result="effect1_dropShadow_814_4340"/>
<feBlend mode="normal" in="SourceGraphic" in2="effect1_dropShadow_814_4340" result="shape"/>
</filter>
</defs>
</svg>
