<?xml version="1.0" encoding="UTF-8"?>
<svg version="1.1" xmlns="http://www.w3.org/2000/svg" width="900" height="300">
<path d="M0 0 C297 0 594 0 900 0 C900 99 900 198 900 300 C603 300 306 300 0 300 C0 201 0 102 0 0 Z " fill="#FEFEFE" transform="translate(0,0)"/>
<path d="M0 0 C12.54 0 25.08 0 38 0 C38.06794095 13.35266142 38.12291137 26.70520688 38.15543652 40.05800247 C38.17105171 46.25911157 38.19221409 52.46009565 38.22631836 58.66113281 C38.25905981 64.6522824 38.27688416 70.64331218 38.28463173 76.63454437 C38.29014876 78.91333653 38.3009218 81.19212258 38.31719017 83.47086334 C38.43253757 100.30664035 38.51589564 116.88040785 26.5625 130.1875 C14.74819059 141.17859011 -1.19223197 144.4749484 -16.82421875 144.43359375 C-18.60273979 144.44145653 -18.60273979 144.44145653 -20.41719055 144.44947815 C-22.91052473 144.45586057 -25.40388917 144.45461084 -27.8972168 144.44604492 C-31.66055492 144.43756075 -35.42235902 144.46631181 -39.18554688 144.49804688 C-58.70447299 144.55550105 -78.30323411 143.69727366 -93.44921875 129.671875 C-104.09302582 118.19693942 -107.33341585 103.82769221 -107.140625 88.61328125 C-106.60926373 74.96024854 -102.27787606 63.1830347 -93 53 C-74.26850469 37.07035861 -50.07578448 38.57946097 -26.9375 38.8125 C-24.31706501 38.82757954 -21.6966216 38.84126213 -19.07617188 38.85351562 C-12.71706463 38.88367263 -6.35915132 38.94244147 0 39 C0 26.13 0 13.26 0 0 Z " fill="#EC1B24" transform="translate(479,52)"/>
<path d="M0 0 C10.65863048 -0.06819229 21.31711243 -0.12305392 31.97591305 -0.15543652 C36.92697797 -0.1709905 41.87788394 -0.1920374 46.82885742 -0.22631836 C51.62051992 -0.25928279 56.41203102 -0.27692986 61.20379829 -0.28463173 C63.01793356 -0.29010954 64.832062 -0.30080277 66.64613152 -0.31719017 C81.14586926 -0.4427806 97.0643645 -0.42022168 110 7 C111.03125 7.5775 112.0625 8.155 113.125 8.75 C123.7017366 17.02744603 127.80314865 27.01553058 130 40 C130.36804166 45.16646594 130.35335564 50.31242753 130.29296875 55.48828125 C130.28735574 56.92701265 130.28309374 58.36574989 130.28010559 59.80448914 C130.2687906 63.54455109 130.2394432 67.28424921 130.20599365 71.02416992 C130.1750003 74.85916221 130.16153852 78.69421476 130.14648438 82.52929688 C130.11455671 90.01969499 130.06352799 97.50979603 130 105 C115.68287043 105.07022796 101.36576776 105.12285574 87.04850101 105.15543652 C80.40002195 105.17107563 73.75168964 105.19228209 67.10327148 105.22631836 C60.68420208 105.2589739 54.26524402 105.27686623 47.84609795 105.28463173 C45.40015346 105.29016407 42.95421489 105.30096736 40.50831795 105.31719017 C37.07580642 105.33904628 33.64375184 105.34196344 30.21118164 105.34057617 C29.20560715 105.351362 28.20003265 105.36214783 27.16398621 105.3732605 C17.78626028 105.33239406 10.5856092 103.42413999 3.72265625 96.875 C-3.46756596 89.0489078 -4.42329794 79.019285 -4.1875 68.703125 C-3.55646075 59.60564255 -1.58011844 53.21980542 5.1875 46.8125 C14.05978856 39.83057003 24.33131819 40.59915462 35.06640625 40.70703125 C36.71263744 40.71263554 38.35887368 40.7169017 40.00511169 40.71989441 C44.31074147 40.73127771 48.61606138 40.76068771 52.92156982 40.79400635 C57.3259258 40.82484875 61.73033248 40.83842985 66.13476562 40.85351562 C74.75665166 40.88556457 83.37828714 40.93668071 92 41 C91.55504566 39.54825178 91.09996379 38.099605 90.640625 36.65234375 C90.38829102 35.84531006 90.13595703 35.03827637 89.87597656 34.20678711 C88.59526137 30.98036999 86.99116888 29.69952777 84 28 C78.98908924 26.30199332 74.39024707 25.69748427 69.13696289 25.68115234 C68.38491577 25.67110672 67.63286865 25.6610611 66.85803223 25.65071106 C64.39624733 25.62005952 61.93457025 25.60289465 59.47265625 25.5859375 C57.75629256 25.5672113 56.03993793 25.54763682 54.32359314 25.5272522 C49.82414105 25.47607829 45.32465916 25.43637399 40.82507324 25.39910889 C36.22640704 25.35897648 31.62786322 25.30792641 27.02929688 25.2578125 C18.01960897 25.16122783 9.00986991 25.07777759 0 25 C0 16.75 0 8.5 0 0 Z " fill="#EC1A24" transform="translate(686,91)"/>
<path d="M0 0 C12.54 0 25.08 0 38 0 C38 12.87 38 25.74 38 39 C42.19203125 38.96519531 46.3840625 38.93039063 50.703125 38.89453125 C54.0776035 38.87519409 57.45206603 38.85894142 60.8265686 38.84474945 C64.37114866 38.829007 67.91550815 38.80802471 71.45996094 38.77368164 C75.54103546 38.73439338 79.62188195 38.72020774 83.703125 38.70703125 C84.95361633 38.69154739 86.20410767 38.67606354 87.49249268 38.66011047 C102.33565241 38.65730847 118.05315943 42.18529134 129.03125 52.765625 C137.16519229 61.99700395 141.13723672 73.32308946 141.11352539 85.53442383 C141.11344986 86.83539505 141.11337433 88.13636627 141.11329651 89.47676086 C141.10819062 90.88685139 141.10297464 92.29694151 141.09765625 93.70703125 C141.09578979 95.15720063 141.09436696 96.60737065 141.09336853 98.05754089 C141.0895613 101.86332966 141.07974642 105.66907991 141.06866455 109.47485352 C141.05660725 114.04707798 141.05203964 118.61931537 141.04621124 123.19155121 C141.03653363 130.12772755 141.01736457 137.06381946 141 144 C128.46 144 115.92 144 103 144 C102.98582031 139.400625 102.97164062 134.80125 102.95703125 130.0625 C102.93695768 127.13664315 102.91542511 124.21094107 102.88867188 121.28515625 C102.84640974 116.64821374 102.80935209 112.01166386 102.80444336 107.37451172 C102.80014297 103.63290497 102.77153878 99.89217949 102.72656822 96.15084839 C102.71364828 94.72847643 102.70926596 93.3059987 102.71384621 91.88357544 C102.8744559 81.57713874 102.8744559 81.57713874 98.57304382 72.51715088 C92.33080959 66.49671393 85.37254634 66.39946547 77.0625 66.390625 C76.06798828 66.37499512 75.07347656 66.35936523 74.04882812 66.34326172 C70.36612473 66.29102081 66.68300544 66.27245735 63 66.25 C54.75 66.1675 46.5 66.085 38 66 C38 91.74 38 117.48 38 144 C25.46 144 12.92 144 0 144 C0 96.48 0 48.96 0 0 Z " fill="#EC1C26" transform="translate(531,52)"/>
<path d="M0 0 C0.93751099 -0.00029205 1.87502197 -0.00058411 2.84094238 -0.00088501 C5.91424076 0.00049913 8.98729128 0.01601702 12.06054688 0.03173828 C14.20145536 0.03547167 16.34236556 0.0383171 18.48327637 0.04031372 C24.09908828 0.04792452 29.71479561 0.06755101 35.33056641 0.08972168 C41.06867051 0.11023522 46.80679162 0.1193272 52.54492188 0.12939453 C63.78976672 0.15079938 75.03450671 0.18596064 86.27929688 0.22705078 C86.27929688 8.47705078 86.27929688 16.72705078 86.27929688 25.22705078 C82.58468262 25.25677979 82.58468262 25.25677979 78.81542969 25.28710938 C70.68090357 25.35399149 62.54650583 25.43163139 54.41212845 25.51457787 C49.47985908 25.56454131 44.54761114 25.61087141 39.61523438 25.64892578 C34.85595561 25.68577788 30.09685605 25.73213775 25.33773041 25.78511429 C23.52127982 25.80365861 21.70479081 25.81876644 19.88828278 25.83039474 C17.34558224 25.8472565 14.80329216 25.87629128 12.26074219 25.90820312 C11.132173 25.91144341 11.132173 25.91144341 9.98080444 25.91474915 C6.26588039 25.97438095 3.43607226 26.166066 0.27929688 28.22705078 C0.19838717 29.85123823 0.14014692 31.47656823 0.09179688 33.10205078 C0.05699219 34.00697266 0.0221875 34.91189453 -0.01367188 35.84423828 C0.08300781 36.63056641 0.1796875 37.41689453 0.27929688 38.22705078 C3.69339686 40.50311743 4.9257747 40.48152789 8.93725586 40.49829102 C10.6806852 40.51357094 10.6806852 40.51357094 12.45933533 40.52915955 C13.71863358 40.53129959 14.97793182 40.53343964 16.27539062 40.53564453 C18.26103815 40.55437074 20.24668568 40.57311423 22.23232365 40.5928278 C27.12280283 40.63806451 32.01342151 40.66161538 36.90405273 40.68334961 C39.64457814 40.69625997 42.3848526 40.71708436 45.1252594 40.74562073 C47.69965667 40.77162294 50.27421105 40.78575524 52.84873962 40.78599548 C64.10828086 40.9121348 75.75995034 42.12583168 84.27929688 50.22705078 C89.56402001 57.64087101 90.48268115 63.96010083 90.52929688 72.85205078 C90.54992187 73.81240234 90.57054687 74.77275391 90.59179688 75.76220703 C90.63241742 83.24654233 89.43239877 89.43759144 85.71679688 95.97705078 C73.4034274 107.34323799 55.74117219 105.50245282 40.20507812 105.42236328 C38.06845737 105.4186276 35.93183488 105.41578325 33.79521179 105.41378784 C28.20410331 105.40619509 22.61310069 105.38658452 17.02203369 105.36437988 C11.30376619 105.34382705 5.58548139 105.33476604 -0.1328125 105.32470703 C-11.32882976 105.3033341 -22.52474102 105.26818798 -33.72070312 105.22705078 C-33.72070312 96.64705078 -33.72070312 88.06705078 -33.72070312 79.22705078 C-31.1918042 79.20723145 -28.66290527 79.18741211 -26.05737305 79.16699219 C-17.7112981 79.10015039 -9.36534894 79.02251005 -1.01941967 78.9395237 C4.04179443 78.88953145 9.10298736 78.84320169 14.16430664 78.80517578 C19.04677193 78.76835996 23.92906133 78.72201014 28.81137657 78.66898727 C30.67610279 78.65042361 32.54086674 78.63532297 34.40564919 78.62370682 C37.01321128 78.60687806 39.6203688 78.57785146 42.2277832 78.54589844 C43.38979752 78.54265816 43.38979752 78.54265816 44.57528687 78.53935242 C48.34065573 78.48022474 50.06782401 78.36803269 53.27929688 76.22705078 C53.75616991 74.09451433 53.75616991 74.09451433 53.65429688 71.72705078 C53.66203125 70.93298828 53.66976562 70.13892578 53.67773438 69.32080078 C53.54625 68.62986328 53.41476563 67.93892578 53.27929688 67.22705078 C49.90578901 64.97804554 48.75494184 64.97291068 44.80493164 64.95581055 C43.12156456 64.94053062 43.12156456 64.94053062 41.40419006 64.92494202 C40.18863937 64.92280197 38.97308868 64.92066193 37.72070312 64.91845703 C35.14192502 64.89327666 32.56314903 64.86787897 29.984375 64.84228516 C25.92296391 64.81164685 21.86153042 64.78945202 17.80004883 64.77075195 C13.87756158 64.74894038 9.95553007 64.7094659 6.03320312 64.66845703 C4.83587051 64.66834122 3.6385379 64.6682254 2.40492249 64.66810608 C-9.91886334 64.52523958 -21.27106128 62.67669262 -30.27929688 53.66845703 C-36.904941 45.4699597 -37.64536649 34.33413509 -36.72070312 24.22705078 C-35.50743877 17.64509163 -32.56700094 11.88030948 -27.72070312 7.22705078 C-19.09063502 1.53149495 -10.13542824 -0.08387455 0 0 Z " fill="#EB1C25" transform="translate(120.720703125,90.77294921875)"/>
<path d="M0 0 C12.54 0 25.08 0 38 0 C38.02578125 4.599375 38.0515625 9.19875 38.078125 13.9375 C38.10331219 16.86333583 38.1296592 19.78907019 38.16015625 22.71484375 C38.20837962 27.35172824 38.25246581 31.98837765 38.27099609 36.62548828 C38.28621752 40.36700741 38.32075837 44.10790865 38.36830902 47.84915161 C38.38306672 49.27152108 38.39103778 50.69397879 38.39188385 52.11642456 C38.16864789 63.29805631 38.16864789 63.29805631 43 73 C48.55458086 77.41088785 53.42509061 77.5883941 60.3515625 77.57421875 C61.32862152 77.58838333 62.30568054 77.60254791 63.31234741 77.61714172 C66.41667828 77.65886835 69.52042887 77.67424702 72.625 77.6875 C75.73644189 77.71662163 78.8477398 77.75122405 81.95907593 77.78999329 C83.89001948 77.812358 85.82105174 77.82825157 87.75210571 77.83683777 C89.06904922 77.84738945 89.06904922 77.84738945 90.41259766 77.8581543 C91.17980133 77.86163376 91.947005 77.86511322 92.73745728 77.86869812 C95 78 95 78 100 79 C100 52.93 100 26.86 100 0 C112.54 0 125.08 0 138 0 C138 34.65 138 69.3 138 105 C114.11625 105.0928125 114.11625 105.0928125 89.75 105.1875 C84.74295898 105.21481201 79.73591797 105.24212402 74.57714844 105.27026367 C68.41064453 105.28381348 68.41064453 105.28381348 65.51373291 105.28633118 C63.51257316 105.2909046 61.51142111 105.30138586 59.51031494 105.31672668 C42.25248491 105.44228748 26.34865735 104.7012716 12.578125 92.9296875 C0.72351456 80.4957164 -0.32373459 65.29823278 -0.1953125 48.92578125 C-0.19157258 47.5066091 -0.18873025 46.08743434 -0.18673706 44.66825867 C-0.17917749 40.97100429 -0.15959711 37.27391233 -0.1373291 33.57672119 C-0.11306332 29.12034714 -0.10405305 24.66391814 -0.09242249 20.20749664 C-0.0731665 13.47155219 -0.0347912 6.73596264 0 0 Z " fill="#ED1B25" transform="translate(221,91)"/>
<path d="M0 0 C0.07436251 5.58672194 0.12870254 11.17315339 0.16479492 16.76025391 C0.17984691 18.65939353 0.20029316 20.55849859 0.22631836 22.45751953 C0.26285992 25.19312081 0.27976238 27.928261 0.29296875 30.6640625 C0.30845261 31.50804596 0.32393646 32.35202942 0.33988953 33.22158813 C0.34150689 38.93445921 -0.49795131 43.25686849 -4.5 47.64453125 C-10.01353344 51.93762109 -14.19036017 52.17970211 -20.98046875 52.23828125 C-22.31069817 52.25038887 -22.31069817 52.25038887 -23.6678009 52.26274109 C-25.54649914 52.27657181 -27.4252224 52.28729849 -29.30395508 52.29516602 C-32.15951049 52.31233175 -35.01389356 52.35622078 -37.86914062 52.40039062 C-39.69790819 52.41052233 -41.52668556 52.41903694 -43.35546875 52.42578125 C-44.20159225 52.44328934 -45.04771576 52.46079742 -45.91947937 52.47883606 C-53.20422531 52.45254322 -58.26351214 50.31081197 -63.8125 45.625 C-70.5709024 37.51491712 -70.5925518 29.1531472 -70 19 C-69.02048814 12.85846064 -65.9693125 9.51439138 -61.328125 5.54296875 C-54.48840812 1.00993491 -48.74999884 0.53838371 -40.703125 0.48828125 C-39.09724518 0.46135445 -39.09724518 0.46135445 -37.45892334 0.43388367 C-34.0559885 0.37995136 -30.65319151 0.34595902 -27.25 0.3125 C-24.94659529 0.2793074 -22.64320892 0.24481595 -20.33984375 0.20898438 C-6.37379487 0 -6.37379487 0 0 0 Z " fill="#FEFCFC" transform="translate(479,117)"/>
<path d="M0 0 C5.32125 -0.061875 10.6425 -0.12375 16.125 -0.1875 C18.62731201 -0.22846802 18.62731201 -0.22846802 21.18017578 -0.27026367 C22.51854735 -0.27903444 23.85692698 -0.28667698 25.1953125 -0.29296875 C25.877146 -0.30831665 26.55897949 -0.32366455 27.26147461 -0.33947754 C31.92079039 -0.34200155 35.02922761 0.5837459 39 3 C41.13802064 5.16959478 41.9001154 6.39775462 42.3984375 9.40234375 C42.31812618 18.08935129 42.31812618 18.08935129 39 22 C37.68086939 23.01866197 36.34921825 24.021538 35 25 C35.5775 25.69867188 36.155 26.39734375 36.75 27.1171875 C37.4925 28.02726562 38.235 28.93734375 39 29.875 C39.7425 30.77992188 40.485 31.68484375 41.25 32.6171875 C43 35 43 35 43 37 C39.19492472 37.55734376 35.78470947 37.76710219 32 37 C28.42128663 33.92987328 26.09525371 30.19050743 24 26 C20.95418731 25.53045739 20.95418731 25.53045739 17.4375 25.375 C15.64119141 25.26285156 15.64119141 25.26285156 13.80859375 25.1484375 C12.88175781 25.09945312 11.95492187 25.05046875 11 25 C11 28.96 11 32.92 11 37 C7.37 37 3.74 37 0 37 C0 24.79 0 12.58 0 0 Z " fill="#1A498C" transform="translate(679,211)"/>
<path d="M0 0 C5.135625 -0.061875 10.27125 -0.12375 15.5625 -0.1875 C17.16939697 -0.21481201 18.77629395 -0.24212402 20.43188477 -0.27026367 C21.71377686 -0.27775635 22.99566895 -0.28524902 24.31640625 -0.29296875 C25.62037354 -0.3086792 26.92434082 -0.32438965 28.26782227 -0.34057617 C32.61171707 0.05582163 35.16338057 0.96359234 39 3 C42.10577027 7.6586554 41.61853384 12.54364795 41 18 C39.19196596 21.07365786 38.13960536 22.43019732 35 24 C36.46818668 27.10742423 38.20025 29.90471739 40.125 32.75 C40.66382813 33.54921875 41.20265625 34.3484375 41.7578125 35.171875 C42.16773438 35.77515625 42.57765625 36.3784375 43 37 C38.8214814 37.68945557 35.14904676 37.95628587 31 37 C28.87890625 34.5859375 28.87890625 34.5859375 27.0625 31.5625 C24.35819999 27.0232008 24.35819999 27.0232008 19.62109375 25.046875 C16.37283199 24.83663152 13.24658107 24.78719057 10 25 C10 28.96 10 32.92 10 37 C6.7 37 3.4 37 0 37 C0 24.79 0 12.58 0 0 Z " fill="#164689" transform="translate(223,211)"/>
<path d="M0 0 C1.77149666 0.00022659 1.77149666 0.00022659 3.57878113 0.00045776 C5.49138481 0.01594162 5.49138481 0.01594162 7.44262695 0.03173828 C9.40060966 0.03598312 9.40060966 0.03598312 11.39814758 0.04031372 C14.86536335 0.04794331 18.33241108 0.06758585 21.79956055 0.08972168 C25.33876268 0.11019473 28.87799202 0.11931855 32.41723633 0.12939453 C39.35936954 0.15083251 46.3013635 0.18600909 53.2434082 0.22705078 C53.2434082 6.49705078 53.2434082 12.76705078 53.2434082 19.22705078 C45.7675446 19.31752811 38.29198167 19.39086756 30.81568623 19.43429947 C27.34387636 19.4551479 23.87246147 19.48341373 20.40087891 19.52880859 C16.40694451 19.58070517 12.41342305 19.60001852 8.41918945 19.61767578 C6.55488029 19.64864349 6.55488029 19.64864349 4.65290833 19.68023682 C3.49208237 19.68053894 2.33125641 19.68084106 1.13525391 19.68115234 C-0.39363716 19.69447601 -0.39363716 19.69447601 -1.95341492 19.70806885 C-5.51296149 19.09725965 -7.18711041 17.71397631 -9.7565918 15.22705078 C-10.53393555 13.00830078 -10.53393555 13.00830078 -10.6940918 10.72705078 C-10.76499023 9.97423828 -10.83588867 9.22142578 -10.90893555 8.44580078 C-10.73156835 5.8626067 -10.15843512 4.39646077 -8.7565918 2.22705078 C-5.30973409 -0.07085435 -4.05540228 -0.01729383 0 0 Z " fill="#FEF5F6" transform="translate(726.756591796875,151.77294921875)"/>
<path d="M0 0 C1.30839844 0.01804688 2.61679687 0.03609375 3.96484375 0.0546875 C7.18564689 0.10170652 10.40494474 0.16741819 13.625 0.25 C13.625 2.89 13.625 5.53 13.625 8.25 C1.25 8.745 1.25 8.745 -11.375 9.25 C-12.365 11.23 -13.355 13.21 -14.375 15.25 C-5.135 15.25 4.105 15.25 13.625 15.25 C13.625 17.56 13.625 19.87 13.625 22.25 C4.385 22.25 -4.855 22.25 -14.375 22.25 C-12.83457252 27.05304035 -12.83457252 27.05304035 -10.375 29.25 C-7.85462036 29.62135915 -7.85462036 29.62135915 -4.9296875 29.6640625 C-3.31513672 29.72207031 -3.31513672 29.72207031 -1.66796875 29.78125 C0.02392578 29.82765625 0.02392578 29.82765625 1.75 29.875 C3.45349609 29.93300781 3.45349609 29.93300781 5.19140625 29.9921875 C8.00243956 30.08667601 10.81346233 30.17223541 13.625 30.25 C13.625 32.56 13.625 34.87 13.625 37.25 C9.22922239 37.30815112 4.83354402 37.34364767 0.4375 37.375 C-0.80837891 37.39175781 -2.05425781 37.40851563 -3.33789062 37.42578125 C-4.53994141 37.43222656 -5.74199219 37.43867188 -6.98046875 37.4453125 C-8.63792114 37.46102295 -8.63792114 37.46102295 -10.32885742 37.47705078 C-14.10944663 37.19525644 -17.08069504 36.42337243 -19.921875 33.84765625 C-23.98730525 28.66027285 -24.60010116 24.86422839 -24.6875 18.4375 C-24.73100586 17.38852539 -24.73100586 17.38852539 -24.77539062 16.31835938 C-24.83795736 11.17344853 -23.83439295 8.27161602 -20.375 4.25 C-14.70079435 -1.44305684 -7.59337237 -0.19802175 0 0 Z " fill="#174789" transform="translate(750.375,210.75)"/>
<path d="M0 0 C1.20849609 0.00322266 2.41699219 0.00644531 3.66210938 0.00976562 C4.92474609 0.01814453 6.18738281 0.02652344 7.48828125 0.03515625 C9.39963867 0.04192383 9.39963867 0.04192383 11.34960938 0.04882812 C14.50004689 0.06062752 17.65039074 0.07709028 20.80078125 0.09765625 C20.80078125 2.73765625 20.80078125 5.37765625 20.80078125 8.09765625 C8.42578125 8.59265625 8.42578125 8.59265625 -4.19921875 9.09765625 C-5.18921875 11.07765625 -6.17921875 13.05765625 -7.19921875 15.09765625 C2.04078125 15.09765625 11.28078125 15.09765625 20.80078125 15.09765625 C20.80078125 17.40765625 20.80078125 19.71765625 20.80078125 22.09765625 C11.56078125 22.09765625 2.32078125 22.09765625 -7.19921875 22.09765625 C-5.54843973 25.84936049 -5.54843973 25.84936049 -3.19921875 29.09765625 C-1.42052149 29.2553003 0.36396601 29.34866302 2.1484375 29.4140625 C3.76782227 29.4769043 3.76782227 29.4769043 5.41992188 29.54101562 C6.55623047 29.58033203 7.69253906 29.61964844 8.86328125 29.66015625 C10.00345703 29.70333984 11.14363281 29.74652344 12.31835938 29.79101562 C15.1457032 29.89748464 17.97313863 29.99949832 20.80078125 30.09765625 C20.80078125 32.40765625 20.80078125 34.71765625 20.80078125 37.09765625 C16.25933131 37.21412666 11.71826731 37.28500127 7.17578125 37.34765625 C5.24798828 37.39792969 5.24798828 37.39792969 3.28125 37.44921875 C-7.38877224 37.55978893 -7.38877224 37.55978893 -10.84765625 35.45703125 C-15.30164904 30.98824114 -17.69105808 27.68128789 -17.69726562 21.17578125 C-17.67728516 20.49 -17.65730469 19.80421875 -17.63671875 19.09765625 C-17.64380859 18.411875 -17.65089844 17.72609375 -17.65820312 17.01953125 C-17.59999002 12.32665963 -16.65189407 9.07957757 -14.19921875 5.09765625 C-9.53279518 0.78121445 -6.24816386 -0.0293341 0 0 Z " fill="#184789" transform="translate(560.19921875,210.90234375)"/>
<path d="M0 0 C1.16015625 0.00322266 2.3203125 0.00644531 3.515625 0.00976562 C5.32546875 0.02233398 5.32546875 0.02233398 7.171875 0.03515625 C9.00492188 0.04192383 9.00492188 0.04192383 10.875 0.04882812 C13.89067446 0.0606081 16.90624998 0.07705772 19.921875 0.09765625 C19.921875 2.73765625 19.921875 5.37765625 19.921875 8.09765625 C7.546875 8.59265625 7.546875 8.59265625 -5.078125 9.09765625 C-6.068125 11.07765625 -7.058125 13.05765625 -8.078125 15.09765625 C1.161875 15.09765625 10.401875 15.09765625 19.921875 15.09765625 C19.921875 17.40765625 19.921875 19.71765625 19.921875 22.09765625 C10.681875 22.09765625 1.441875 22.09765625 -8.078125 22.09765625 C-6.42734598 25.84936049 -6.42734598 25.84936049 -4.078125 29.09765625 C-2.29942774 29.2553003 -0.51494024 29.34866302 1.26953125 29.4140625 C2.88891602 29.4769043 2.88891602 29.4769043 4.54101562 29.54101562 C5.67732422 29.58033203 6.81363281 29.61964844 7.984375 29.66015625 C9.12455078 29.70333984 10.26472656 29.74652344 11.43945312 29.79101562 C14.26679695 29.89748464 17.09423238 29.99949832 19.921875 30.09765625 C19.921875 32.40765625 19.921875 34.71765625 19.921875 37.09765625 C15.52609739 37.15580737 11.13041902 37.19130392 6.734375 37.22265625 C5.48849609 37.23941406 4.24261719 37.25617188 2.95898438 37.2734375 C1.75693359 37.27988281 0.55488281 37.28632813 -0.68359375 37.29296875 C-2.34104614 37.3086792 -2.34104614 37.3086792 -4.03198242 37.32470703 C-7.82511892 37.04197745 -10.80399291 36.28169819 -13.625 33.66015625 C-18.99391223 26.68754296 -18.57074485 20.62445798 -18.078125 12.09765625 C-17.24044318 8.03456962 -15.64076671 5.64587125 -12.640625 2.72265625 C-8.43525663 0.05583728 -4.93062738 -0.02416974 0 0 Z " fill="#174789" transform="translate(197.078125,210.90234375)"/>
<path d="M0 0 C5.15625 -0.061875 10.3125 -0.12375 15.625 -0.1875 C17.24100098 -0.21481201 18.85700195 -0.24212402 20.52197266 -0.27026367 C22.44855713 -0.28150269 22.44855713 -0.28150269 24.4140625 -0.29296875 C25.7232666 -0.3086792 27.0324707 -0.32438965 28.38134766 -0.34057617 C33.17435757 0.11052684 36.35143954 1.44356817 39.85668945 4.75292969 C41.46150941 7.90705373 41.33780527 10.42598511 41.29296875 13.953125 C41.28872391 14.61334656 41.28447906 15.27356812 41.28010559 15.95379639 C41.26337435 18.05295391 41.22573551 20.15113496 41.1875 22.25 C41.17244584 23.67706942 41.15875871 25.10415396 41.14648438 26.53125 C41.11349001 30.02114817 41.06174743 33.5104787 41 37 C37.7 37 34.4 37 31 37 C30.97494385 36.18732666 30.9498877 35.37465332 30.92407227 34.53735352 C30.80850882 30.87889248 30.68560416 27.22071472 30.5625 23.5625 C30.52318359 22.28310547 30.48386719 21.00371094 30.44335938 19.68554688 C30.40146484 18.47060547 30.35957031 17.25566406 30.31640625 16.00390625 C30.27974854 14.87799072 30.24309082 13.7520752 30.20532227 12.59204102 C30.28781955 10.07146559 30.28781955 10.07146559 29 9 C27.58672053 8.84379445 26.1664541 8.74943827 24.74609375 8.68359375 C23.9770874 8.64548584 23.20808105 8.60737793 22.41577148 8.56811523 C21.43294189 8.52501221 20.4501123 8.48190918 19.4375 8.4375 C16.323125 8.293125 13.20875 8.14875 10 8 C10 17.57 10 27.14 10 37 C6.7 37 3.4 37 0 37 C0 24.79 0 12.58 0 0 Z " fill="#154588" transform="translate(587,211)"/>
<path d="M0 0 C1.30839844 0.01804688 2.61679688 0.03609375 3.96484375 0.0546875 C7.18564689 0.10170652 10.40494474 0.16741819 13.625 0.25 C13.625 2.89 13.625 5.53 13.625 8.25 C12.55016357 8.28758423 12.55016357 8.28758423 11.45361328 8.32592773 C8.21888486 8.44169751 4.98446159 8.56450969 1.75 8.6875 C0.62207031 8.72681641 -0.50585938 8.76613281 -1.66796875 8.80664062 C-2.74433594 8.84853516 -3.82070312 8.89042969 -4.9296875 8.93359375 C-6.42218018 8.98858032 -6.42218018 8.98858032 -7.94482422 9.04467773 C-10.38279501 9.09959532 -10.38279501 9.09959532 -12.375 10.25 C-12.705 11.9 -13.035 13.55 -13.375 15.25 C-4.135 15.25 5.105 15.25 14.625 15.25 C14.625 17.89 14.625 20.53 14.625 23.25 C5.055 23.25 -4.515 23.25 -14.375 23.25 C-14.375 27.87 -14.375 32.49 -14.375 37.25 C-17.675 37.25 -20.975 37.25 -24.375 37.25 C-24.49151725 32.87522526 -24.56236 28.50085173 -24.625 24.125 C-24.65851563 22.8875 -24.69203125 21.65 -24.7265625 20.375 C-24.8247707 11.24163731 -24.8247707 11.24163731 -22.734375 6.6328125 C-15.48594321 -0.68762358 -10.18517882 -0.26561148 0 0 Z " fill="#1B4A8B" transform="translate(160.375,210.75)"/>
<path d="M0 0 C1.19882812 0.00966797 2.39765625 0.01933594 3.6328125 0.02929688 C5.4890625 0.06700195 5.4890625 0.06700195 7.3828125 0.10546875 C8.64351562 0.11900391 9.90421875 0.13253906 11.203125 0.14648438 C14.30512704 0.1817344 17.40624784 0.23101371 20.5078125 0.29296875 C20.5078125 2.93296875 20.5078125 5.57296875 20.5078125 8.29296875 C11.9278125 8.62296875 3.3478125 8.95296875 -5.4921875 9.29296875 C-6.55604233 12.48453323 -6.65896732 14.87794351 -6.6796875 18.23046875 C-6.70095703 19.79087891 -6.70095703 19.79087891 -6.72265625 21.3828125 C-6.493849 24.27198885 -6.07829335 25.89433149 -4.4921875 28.29296875 C-1.97541637 29.55135432 -0.07925462 29.50115848 2.734375 29.609375 C3.765625 29.65126953 4.796875 29.69316406 5.859375 29.73632812 C6.93960938 29.77564453 8.01984375 29.81496094 9.1328125 29.85546875 C10.76476562 29.92024414 10.76476562 29.92024414 12.4296875 29.98632812 C15.1222642 30.09261405 17.81493503 30.19464932 20.5078125 30.29296875 C20.5078125 32.60296875 20.5078125 34.91296875 20.5078125 37.29296875 C15.96636256 37.40943916 11.42529856 37.48031377 6.8828125 37.54296875 C4.95501953 37.59324219 4.95501953 37.59324219 2.98828125 37.64453125 C-8.80342621 37.76672511 -8.80342621 37.76672511 -13.4921875 33.29296875 C-18.22923106 27.90253988 -17.9839107 21.92679748 -17.8359375 15.046875 C-17.3878843 10.15393038 -16.17767291 6.61847652 -12.4921875 3.29296875 C-8.13471528 0.74808831 -5.02913255 -0.07184475 0 0 Z " fill="#174789" transform="translate(517.4921875,210.70703125)"/>
<path d="M0 0 C14.19 0 28.38 0 43 0 C43 2.64 43 5.28 43 8 C37.72 8 32.44 8 27 8 C27 17.57 27 27.14 27 37 C23.37 37 19.74 37 16 37 C16 27.43 16 17.86 16 8 C10.72 8 5.44 8 0 8 C0 5.36 0 2.72 0 0 Z " fill="#1F4D8D" transform="translate(632,211)"/>
<path d="M0 0 C14.19 0 28.38 0 43 0 C43 2.64 43 5.28 43 8 C37.72 8 32.44 8 27 8 C27 17.57 27 27.14 27 37 C23.37 37 19.74 37 16 37 C16 27.43 16 17.86 16 8 C10.72 8 5.44 8 0 8 C0 5.36 0 2.72 0 0 Z " fill="#1F4D8D" transform="translate(387,211)"/>
<path d="M0 0 C14.19 0 28.38 0 43 0 C43 2.64 43 5.28 43 8 C37.72 8 32.44 8 27 8 C27 17.57 27 27.14 27 37 C23.37 37 19.74 37 16 37 C16 27.43 16 17.86 16 8 C10.72 8 5.44 8 0 8 C0 5.36 0 2.72 0 0 Z " fill="#1A4B8E" transform="translate(268,211)"/>
<path d="M0 0 C3.96151293 -0.94895557 7.07017536 -1.17352354 11 0 C15.23971835 3.87733749 18.11324655 9.09064055 21 14 C24.07059959 11.16151917 25.99647557 8.36422176 28.0625 4.75 C31.12020192 0.19682814 31.12020192 0.19682814 34.8984375 -0.6484375 C37.66385901 -0.62711034 40.27223058 -0.44394077 43 0 C39.35790724 5.94914188 35.61918428 11.46981372 31.125 16.8125 C26.15885379 23.22886208 25.70636328 29.06006298 26 37 C22.7 37 19.4 37 16 37 C16.09023438 36.13761719 16.18046875 35.27523437 16.2734375 34.38671875 C16.62291474 21.65768224 10.33248363 14.31587876 2.3828125 4.84667969 C1 3 1 3 0 0 Z " fill="#174789" transform="translate(434,211)"/>
<path d="M0 0 C3.3 0 6.6 0 10 0 C10 9.57 10 19.14 10 29 C18.58 29 27.16 29 36 29 C36 31.64 36 34.28 36 37 C24.12 37 12.24 37 0 37 C0 24.79 0 12.58 0 0 Z " fill="#17478B" transform="translate(332,211)"/>
<path d="M0 0 C3.63 0 7.26 0 11 0 C11 12.54 11 25.08 11 38 C7.37 38 3.74 38 0 38 C0 25.46 0 12.92 0 0 Z " fill="#10448C" transform="translate(315,211)"/>
<path d="M0 0 C3.63 0 7.26 0 11 0 C11 12.21 11 24.42 11 37 C7.37 37 3.74 37 0 37 C0 24.79 0 12.58 0 0 Z " fill="#235090" transform="translate(372,211)"/>
<path d="M0 0 C12.54 0 25.08 0 38 0 C38 21.45 38 42.9 38 65 C37.34 65 36.68 65 36 65 C36 44.21 36 23.42 36 2 C24.78 2 13.56 2 2 2 C2.12016704 13.84191731 2.12016704 13.84191731 2.2578125 25.68359375 C2.31789993 30.51997889 2.37602923 35.35632725 2.421875 40.19287109 C2.45900586 44.09632658 2.50543725 47.99957487 2.55806351 51.9028511 C2.57646097 53.38498897 2.59162171 54.86717099 2.60334396 56.34937668 C2.66936539 64.41571249 2.96350024 72.15038741 5 80 C-0.26271606 74.73728394 -0.18750174 63.66440659 -0.34057617 56.53564453 C-0.34010969 53.89999507 -0.32434171 51.2679184 -0.29296875 48.6328125 C-0.28735364 47.21793067 -0.28309264 45.80304289 -0.28010559 44.38815308 C-0.26880706 40.71550573 -0.2394751 37.04323066 -0.20599365 33.37072754 C-0.16948051 28.93685089 -0.15605996 24.50284777 -0.13863373 20.06886292 C-0.10982374 13.3789853 -0.05223477 6.68991984 0 0 Z " fill="#D6353D" transform="translate(221,91)"/>
<path d="M0 0 C6.93 0 13.86 0 21 0 C22.39431504 2.78863007 22.25660094 4.92078868 22 8 C18.84685215 10.10209857 18.13896919 10.2434761 14.55078125 10.1953125 C13.27944336 10.18564453 13.27944336 10.18564453 11.98242188 10.17578125 C11.10134766 10.15902344 10.22027344 10.14226562 9.3125 10.125 C8.41982422 10.11597656 7.52714844 10.10695312 6.60742188 10.09765625 C4.40483334 10.07409915 2.20238275 10.03822844 0 10 C0 6.7 0 3.4 0 0 Z " fill="#E9F0F7" transform="translate(689,219)"/>
<path d="M0 0 C5.40265143 8.10397715 4.26722008 18.84248624 4.1953125 28.1953125 C4.19157392 29.63833417 4.18873095 31.08135841 4.18673706 32.52438354 C4.179167 36.2890547 4.15957702 40.05356707 4.1373291 43.81817627 C4.11672635 47.67303318 4.10770475 51.52791619 4.09765625 55.3828125 C4.07632358 62.92194673 4.04226967 70.46095096 4 78 C-10.38624518 78.02336949 -24.77248741 78.04093259 -39.15874767 78.05181217 C-45.83866808 78.05703349 -52.51857326 78.06411757 -59.19848633 78.07543945 C-65.6434625 78.08629493 -72.08842641 78.09228251 -78.53341103 78.09487724 C-80.99381008 78.09672668 -83.45420844 78.10033808 -85.91460228 78.10573006 C-89.35738965 78.11297572 -92.80012617 78.11398944 -96.24291992 78.11352539 C-97.26287552 78.11712067 -98.28283112 78.12071594 -99.33369446 78.12442017 C-100.27453888 78.1230455 -101.2153833 78.12167084 -102.18473816 78.12025452 C-103.40565297 78.12163721 -103.40565297 78.12163721 -104.65123272 78.12304783 C-107.1792922 77.99060719 -109.53245043 77.55261638 -112 77 C-112 76.67 -112 76.34 -112 76 C-74.05 76.33 -36.1 76.66 3 77 C2.7834375 61.9334375 2.7834375 61.9334375 2.5625 46.5625 C2.51939697 43.3869751 2.47629395 40.2114502 2.43188477 36.93969727 C2.39378144 34.44026096 2.355314 31.94083016 2.31640625 29.44140625 C2.2916925 27.47343079 2.2916925 27.47343079 2.26647949 25.46569824 C2.24629761 24.22735229 2.22611572 22.98900635 2.20532227 21.71313477 C2.18200584 20.09097801 2.18200584 20.09097801 2.15821838 18.43605042 C2.27241981 16.05248949 2.27241981 16.05248949 1 15 C0.76346477 12.47403741 0.57826308 9.96892793 0.4375 7.4375 C0.39431641 6.72658203 0.35113281 6.01566406 0.30664062 5.28320312 C0.20028223 3.52238088 0.09961154 1.7612168 0 0 Z " fill="#CC2A31" transform="translate(812,118)"/>
<path d="M0 0 C3.31255326 -0.02683436 6.62489183 -0.0467578 9.9375 -0.0625 C10.88302734 -0.07087891 11.82855469 -0.07925781 12.80273438 -0.08789062 C14.15141602 -0.09272461 14.15141602 -0.09272461 15.52734375 -0.09765625 C16.77632446 -0.10551147 16.77632446 -0.10551147 18.05053711 -0.11352539 C20 0 20 0 21 1 C21.1875 4.4375 21.1875 4.4375 21 8 C19 10 19 10 17.02880859 10.22705078 C16.24328613 10.21657715 15.45776367 10.20610352 14.6484375 10.1953125 C13.79765625 10.18886719 12.946875 10.18242187 12.0703125 10.17578125 C10.73613281 10.15064453 10.73613281 10.15064453 9.375 10.125 C8.02921875 10.11146484 8.02921875 10.11146484 6.65625 10.09765625 C4.43738678 10.07405132 2.2186603 10.03817962 0 10 C0 6.7 0 3.4 0 0 Z " fill="#EFF6F9" transform="translate(233,219)"/>
<path d="M0 0 C14.19 0 28.38 0 43 0 C43 2.64 43 5.28 43 8 C37.72 8 32.44 8 27 8 C27 7.34 27 6.68 27 6 C31.62 6 36.24 6 41 6 C41 4.68 41 3.36 41 2 C27.8 2 14.6 2 1 2 C1 3.65 1 5.3 1 7 C5.95 7 10.9 7 16 7 C16 7.33 16 7.66 16 8 C10.72 8 5.44 8 0 8 C0 5.36 0 2.72 0 0 Z " fill="#2F558A" transform="translate(268,211)"/>
<path d="M0 0 C3.63 0 7.26 0 11 0 C11 12.54 11 25.08 11 38 C7.37 38 3.74 38 0 38 C0 25.46 0 12.92 0 0 Z M1 1 C1 12.55 1 24.1 1 36 C3.64 36 6.28 36 9 36 C9 24.45 9 12.9 9 1 C6.36 1 3.72 1 1 1 Z " fill="#5373A0" transform="translate(315,211)"/>
<path d="M0 0 C0.33 0 0.66 0 1 0 C1.04676097 14.10819435 1.08187587 28.21637665 1.10362434 42.32463264 C1.1140624 48.87562879 1.12822215 55.42657288 1.15087891 61.97753906 C1.17260628 68.29933052 1.18456846 74.62107189 1.18975449 80.9428978 C1.19345041 83.35502791 1.20066756 85.76715527 1.21146011 88.17926407 C1.22597341 91.55723244 1.22797798 94.93499375 1.22705078 98.31298828 C1.23424133 99.31064713 1.24143188 100.30830597 1.24884033 101.3361969 C1.23409928 106.29785637 0.9659464 110.34929492 -1 115 C-1.33 115 -1.66 115 -2 115 C-2.09765625 108.84765625 -2.09765625 108.84765625 -2 107 C-1.505 106.505 -1.505 106.505 -1 106 C-0.89253688 104.62170185 -0.85320669 103.23800949 -0.84178162 101.85557556 C-0.8319928 100.96230057 -0.82220398 100.06902557 -0.81211853 99.14868164 C-0.80636307 98.16109863 -0.8006076 97.17351562 -0.79467773 96.15600586 C-0.78477814 95.12198135 -0.77487854 94.08795685 -0.76467896 93.02259827 C-0.73295787 89.58670381 -0.70826476 86.15079549 -0.68359375 82.71484375 C-0.66303337 80.339723 -0.64203716 77.96460598 -0.62062073 75.5894928 C-0.56530539 69.32427995 -0.51593798 63.05903357 -0.46777344 56.79376221 C-0.41762732 50.40609741 -0.36190538 44.01848158 -0.30664062 37.63085938 C-0.19894339 25.08728166 -0.0973351 12.54366218 0 0 Z " fill="#E01F27" transform="translate(515,53)"/>
<path d="M0 0 C6.75 -0.125 6.75 -0.125 9 1 C10.99651809 1.20418935 12.99759821 1.36522296 15 1.5 C20.77777778 1.88888889 20.77777778 1.88888889 23 3 C24.7566923 3.09072287 26.5168501 3.11754144 28.27587891 3.11352539 C29.3768692 3.11344986 30.4778595 3.11337433 31.61221313 3.11329651 C32.80494843 3.10813522 33.99768372 3.10297394 35.2265625 3.09765625 C36.44451508 3.0962413 37.66246765 3.09482635 38.91732788 3.09336853 C42.8199099 3.08775639 46.72243523 3.07520179 50.625 3.0625 C53.26562417 3.05748657 55.90624924 3.05292339 58.546875 3.04882812 C65.03126945 3.03778301 71.51563068 3.02103302 78 3 C78 3.33 78 3.66 78 4 C74.46785342 4.79950109 71.18019929 5.13879852 67.56152344 5.17700195 C66.49560974 5.18983719 65.42969604 5.20267242 64.33148193 5.21589661 C63.18568665 5.22328354 62.03989136 5.23067047 60.859375 5.23828125 C59.66378967 5.246353 58.46820435 5.25442474 57.23638916 5.26274109 C54.70122723 5.27656688 52.16604679 5.28729576 49.63085938 5.29516602 C47.0650478 5.3066263 44.49925893 5.3269821 41.93359375 5.35668945 C27.43599062 5.52441638 13.90190868 5.43552604 0 1 C0 0.67 0 0.34 0 0 Z " fill="#CF3138" transform="translate(402,191)"/>
<path d="M0 0 C0 3 0 3 -1.18421936 4.58486938 C-6.26797009 9.27113459 -10.10214599 9.82344715 -16.87109375 9.5859375 C-18.25458763 9.57320297 -18.25458763 9.57320297 -19.66603088 9.56021118 C-22.59107876 9.52681679 -25.51329581 9.45156624 -28.4375 9.375 C-30.42899644 9.34488224 -32.42053641 9.31750961 -34.41210938 9.29296875 C-39.27581829 9.22707149 -44.13743045 9.12364883 -49 9 C-49 8.34 -49 7.68 -49 7 C-47.81970215 6.98541748 -46.6394043 6.97083496 -45.42333984 6.95581055 C-41.02850625 6.89767303 -36.63417674 6.82044119 -32.23974609 6.73754883 C-30.34074101 6.70437207 -28.44163904 6.67631769 -26.54248047 6.65356445 C-23.80654765 6.61988482 -21.07149689 6.5675628 -18.3359375 6.51171875 C-17.49195404 6.50532883 -16.64797058 6.4989389 -15.77841187 6.49235535 C-9.94546824 6.34810054 -5.60679373 5.34611436 -1.125 1.3125 C-0.75375 0.879375 -0.3825 0.44625 0 0 Z " fill="#DD444B" transform="translate(476,162)"/>
<path d="M0 0 C0.66 0.33 1.32 0.66 2 1 C-1.75 5.875 -1.75 5.875 -4 7 C-4.65213292 9.02463255 -4.65213292 9.02463255 -5 11 C-5.66 11 -6.32 11 -7 11 C-7.06058594 11.7734375 -7.12117187 12.546875 -7.18359375 13.34375 C-7.65892599 19.25249543 -8.20914557 25.12508141 -9 31 C-9.33 31 -9.66 31 -10 31 C-10.33477177 21.21722507 -10.4168782 11.9267319 -4 4 C-2.70317626 2.63113049 -1.38176866 1.2830709 0 0 Z " fill="#D63138" transform="translate(692,137)"/>
<path d="M0 0 C6.75 -0.125 6.75 -0.125 9 1 C12.01664809 1.23746209 15.03208414 1.38233317 18.0546875 1.5234375 C21.22449197 2.03632363 22.64679427 2.87415714 25 5 C18.97512156 5.21908649 13.82450494 4.49398047 8 3 C7.22527344 2.80921875 6.45054687 2.6184375 5.65234375 2.421875 C3.76617601 1.95615457 1.88277506 1.47925183 0 1 C0 0.67 0 0.34 0 0 Z " fill="#DB363E" transform="translate(402,191)"/>
<path d="M0 0 C0.66 0 1.32 0 2 0 C0.125 3.875 0.125 3.875 -1 5 C11.87 5.495 11.87 5.495 25 6 C25 6.33 25 6.66 25 7 C15.76 7 6.52 7 -3 7 C-2 2 -2 2 0 0 Z " fill="#E2F2FC" transform="translate(556,219)"/>
<path d="M0 0 C1.27752991 3.88403389 0.37724933 6.00742249 -1.1640625 9.76171875 C-2.52639682 13.40946439 -3.24974491 17.18693882 -4 21 C-4.33 21 -4.66 21 -5 21 C-5.58190203 13.28979805 -3.44130496 6.88260993 0 0 Z " fill="#D7363E" transform="translate(378,116)"/>
<path d="M0 0 C1.07636719 0.00322266 2.15273437 0.00644531 3.26171875 0.00976562 C4.38964844 0.01814453 5.51757812 0.02652344 6.6796875 0.03515625 C7.81535156 0.03966797 8.95101562 0.04417969 10.12109375 0.04882812 C12.93234388 0.0606401 15.7434898 0.07711118 18.5546875 0.09765625 C18.5546875 0.42765625 18.5546875 0.75765625 18.5546875 1.09765625 C17.87889648 1.11747559 17.20310547 1.13729492 16.50683594 1.15771484 C13.43906706 1.25308863 10.37196752 1.3627179 7.3046875 1.47265625 C5.70947266 1.5190625 5.70947266 1.5190625 4.08203125 1.56640625 C2.54482422 1.62441406 2.54482422 1.62441406 0.9765625 1.68359375 C0.03393555 1.71501465 -0.90869141 1.74643555 -1.87988281 1.77880859 C-4.49366679 2.10366602 -6.18884284 2.77441787 -8.4453125 4.09765625 C-8.1153125 3.10765625 -7.7853125 2.11765625 -7.4453125 1.09765625 C-4.83580014 -0.20709993 -2.91829965 -0.01535947 0 0 Z " fill="#EDF9FD" transform="translate(155.4453125,218.90234375)"/>
<path d="M0 0 C4.11196775 6.16795162 4.26793858 13.76565833 4 21 C3.67 21 3.34 21 3 21 C1.22598368 16.37025009 0.60358379 12.03955157 0.375 7.125 C0.33632813 6.43664062 0.29765625 5.74828125 0.2578125 5.0390625 C0.16451834 3.35976754 0.08121762 1.67992233 0 0 Z " fill="#D83E45" transform="translate(812,118)"/>
<path d="M0 0 C0.33 0 0.66 0 1 0 C1.24849534 2.93703525 1.47448285 5.87286332 1.6875 8.8125 C1.76033203 9.64587891 1.83316406 10.47925781 1.90820312 11.33789062 C1.96298828 12.14033203 2.01777344 12.94277344 2.07421875 13.76953125 C2.13182373 14.50792236 2.18942871 15.24631348 2.2487793 16.00708008 C2 18 2 18 -1 21 C-0.67 14.07 -0.34 7.14 0 0 Z " fill="#FCB7BC" transform="translate(211,158)"/>
<path d="M0 0 C0.33 0 0.66 0 1 0 C1.05451714 2.04136395 1.09302485 4.08315856 1.125 6.125 C1.14820313 7.26195312 1.17140625 8.39890625 1.1953125 9.5703125 C0.99672109 13.05757767 0.2524801 15.7553862 -1 19 C-1.33 19 -1.66 19 -2 19 C-2.09765625 12.84765625 -2.09765625 12.84765625 -2 11 C-1.67 10.67 -1.34 10.34 -1 10 C-0.76712992 8.31816052 -0.58735834 6.6287584 -0.4375 4.9375 C-0.35371094 4.01839844 -0.26992188 3.09929687 -0.18359375 2.15234375 C-0.12300781 1.44207031 -0.06242188 0.73179687 0 0 Z " fill="#D92C33" transform="translate(515,149)"/>
<path d="M0 0 C0.33 0.99 0.66 1.98 1 3 C0.0409375 3.86625 0.0409375 3.86625 -0.9375 4.75 C-2.98223868 6.98062401 -3.58205199 8.07436391 -4 11 C-4.66 11 -5.32 11 -6 11 C-5.55530671 5.96014269 -3.28656638 3.62365012 0 0 Z " fill="#31588E" transform="translate(732,213)"/>
</svg>
