<svg width="141" height="30" viewBox="0 0 141 30" fill="none" xmlns="http://www.w3.org/2000/svg">
<rect width="141" height="30" rx="15" fill="#FFC65C"/>
<path fill-rule="evenodd" clip-rule="evenodd" d="M25.3439 21.3332C24.4439 21.3 21.8933 20.9475 19.222 18.2769C16.5514 15.6057 16.1995 13.0557 16.1658 12.155C16.1158 10.7825 17.167 9.44942 18.3814 8.92879C18.5276 8.86565 18.6878 8.84161 18.8461 8.85903C19.0044 8.87645 19.1555 8.93474 19.2845 9.02817C20.2845 9.75692 20.9745 10.8594 21.567 11.7263C21.6974 11.9167 21.7531 12.1485 21.7236 12.3774C21.6941 12.6063 21.5814 12.8164 21.407 12.9675L20.1877 13.8732C20.1287 13.9157 20.0873 13.9782 20.0709 14.049C20.0546 14.1198 20.0646 14.1941 20.0989 14.2582C20.3752 14.76 20.8664 15.5075 21.4289 16.07C21.9914 16.6325 22.7745 17.1563 23.3114 17.4638C23.3787 17.5016 23.4579 17.5121 23.5328 17.4933C23.6077 17.4745 23.6725 17.4277 23.7139 17.3625L24.5077 16.1544C24.6536 15.9606 24.8689 15.8307 25.1084 15.792C25.3479 15.7534 25.5931 15.8089 25.7927 15.9469C26.672 16.5557 27.6983 17.2338 28.4495 18.1957C28.5505 18.3256 28.6148 18.4803 28.6356 18.6436C28.6564 18.8068 28.6329 18.9727 28.5677 19.1238C28.0445 20.3444 26.7208 21.3838 25.3439 21.3332Z" fill="black"/>
<path d="M36.8086 15.8071V14.4659H39.3075C39.8063 14.4659 40.1922 14.3388 40.4651 14.0847C40.7475 13.8212 40.8886 13.4588 40.8886 12.9976C40.8886 12.5835 40.7522 12.2353 40.4792 11.9529C40.2063 11.6706 39.8204 11.5294 39.3216 11.5294H36.8086V10.1176H39.3922C40.0133 10.1176 40.5592 10.2447 41.0298 10.4988C41.5004 10.7435 41.8628 11.0824 42.1169 11.5153C42.3804 11.9388 42.5122 12.4235 42.5122 12.9694C42.5122 13.5435 42.3804 14.0424 42.1169 14.4659C41.8628 14.8894 41.5004 15.2188 41.0298 15.4541C40.5592 15.6894 40.0133 15.8071 39.3922 15.8071H36.8086ZM35.6933 20V10.1176H37.3169V20H35.6933ZM41.1145 20L37.6557 15.7082L39.1663 15.1576L43.1616 20H41.1145ZM47.0949 20.1412C46.4172 20.1412 45.8055 19.9906 45.2596 19.6894C44.7231 19.3788 44.2949 18.9553 43.9749 18.4188C43.6643 17.8824 43.509 17.28 43.509 16.6118C43.509 15.9435 43.6643 15.3459 43.9749 14.8188C44.2855 14.2824 44.7043 13.8588 45.2314 13.5482C45.7678 13.2376 46.3608 13.0824 47.0102 13.0824C47.6408 13.0824 48.1961 13.2282 48.6761 13.52C49.1655 13.8118 49.5466 14.2118 49.8196 14.72C50.1019 15.2282 50.2431 15.8071 50.2431 16.4565C50.2431 16.5694 50.2337 16.6871 50.2149 16.8094C50.2055 16.9224 50.1866 17.0494 50.1584 17.1906H44.5961V15.92H49.3537L48.7749 16.4282C48.7561 16.0141 48.6761 15.6659 48.5349 15.3835C48.3937 15.1012 48.1914 14.8847 47.9278 14.7341C47.6737 14.5835 47.3584 14.5082 46.9819 14.5082C46.5866 14.5082 46.2431 14.5929 45.9514 14.7624C45.6596 14.9318 45.4337 15.1718 45.2737 15.4824C45.1137 15.7835 45.0337 16.1459 45.0337 16.5694C45.0337 16.9929 45.1184 17.3647 45.2878 17.6847C45.4572 18.0047 45.6972 18.2541 46.0078 18.4329C46.3184 18.6024 46.6761 18.6871 47.0808 18.6871C47.429 18.6871 47.749 18.6259 48.0408 18.5035C48.3419 18.3812 48.5961 18.2024 48.8031 17.9671L49.7914 18.9694C49.4619 19.3553 49.0619 19.6471 48.5914 19.8447C48.1208 20.0424 47.6219 20.1412 47.0949 20.1412ZM54.3257 20.1412C53.7139 20.1412 53.1586 19.9859 52.6598 19.6753C52.1704 19.3647 51.7798 18.9459 51.488 18.4188C51.2057 17.8824 51.0645 17.2847 51.0645 16.6259C51.0645 15.9576 51.2057 15.36 51.488 14.8329C51.7798 14.2965 52.1704 13.8729 52.6598 13.5624C53.1586 13.2424 53.7139 13.0824 54.3257 13.0824C54.8433 13.0824 55.2998 13.1953 55.6951 13.4212C56.0998 13.6376 56.4198 13.9388 56.6551 14.3247C56.8904 14.7106 57.008 15.1482 57.008 15.6376V17.5859C57.008 18.0753 56.8904 18.5129 56.6551 18.8988C56.4292 19.2847 56.1139 19.5906 55.7092 19.8165C55.3045 20.0329 54.8433 20.1412 54.3257 20.1412ZM54.5798 18.6729C55.1539 18.6729 55.6151 18.48 55.9633 18.0941C56.321 17.7082 56.4998 17.2141 56.4998 16.6118C56.4998 16.2071 56.4198 15.8494 56.2598 15.5388C56.0998 15.2282 55.8739 14.9882 55.5821 14.8188C55.2998 14.64 54.9657 14.5506 54.5798 14.5506C54.2033 14.5506 53.8692 14.64 53.5774 14.8188C53.2951 14.9882 53.0692 15.2282 52.8998 15.5388C52.7398 15.8494 52.6598 16.2071 52.6598 16.6118C52.6598 17.0165 52.7398 17.3741 52.8998 17.6847C53.0692 17.9953 53.2951 18.24 53.5774 18.4188C53.8692 18.5882 54.2033 18.6729 54.5798 18.6729ZM56.401 22.8235V18.3341L56.6692 16.6965L56.401 15.0447V13.2235H57.9539V22.8235H56.401ZM62.4585 20.1412C61.8844 20.1412 61.3715 20.0141 60.9197 19.76C60.4773 19.5059 60.1291 19.1576 59.875 18.7153C59.6303 18.2635 59.5079 17.7459 59.5079 17.1624V13.2235H61.0609V17.0918C61.0609 17.4212 61.1126 17.7035 61.2162 17.9388C61.3291 18.1647 61.4891 18.3388 61.6962 18.4612C61.9126 18.5835 62.1668 18.6447 62.4585 18.6447C62.9103 18.6447 63.2538 18.5129 63.4891 18.2494C63.7338 17.9765 63.8562 17.5906 63.8562 17.0918V13.2235H65.4091V17.1624C65.4091 17.7553 65.2821 18.2776 65.0279 18.7294C64.7832 19.1718 64.4397 19.52 63.9973 19.7741C63.555 20.0188 63.0421 20.1412 62.4585 20.1412ZM70.1188 20.1412C69.4411 20.1412 68.8294 19.9906 68.2835 19.6894C67.747 19.3788 67.3188 18.9553 66.9988 18.4188C66.6882 17.8824 66.5329 17.28 66.5329 16.6118C66.5329 15.9435 66.6882 15.3459 66.9988 14.8188C67.3094 14.2824 67.7282 13.8588 68.2553 13.5482C68.7917 13.2376 69.3847 13.0824 70.0341 13.0824C70.6647 13.0824 71.22 13.2282 71.7 13.52C72.1894 13.8118 72.5705 14.2118 72.8435 14.72C73.1258 15.2282 73.267 15.8071 73.267 16.4565C73.267 16.5694 73.2576 16.6871 73.2388 16.8094C73.2294 16.9224 73.2105 17.0494 73.1823 17.1906H67.62V15.92H72.3776L71.7988 16.4282C71.78 16.0141 71.7 15.6659 71.5588 15.3835C71.4176 15.1012 71.2153 14.8847 70.9517 14.7341C70.6976 14.5835 70.3823 14.5082 70.0058 14.5082C69.6105 14.5082 69.267 14.5929 68.9753 14.7624C68.6835 14.9318 68.4576 15.1718 68.2976 15.4824C68.1376 15.7835 68.0576 16.1459 68.0576 16.5694C68.0576 16.9929 68.1423 17.3647 68.3117 17.6847C68.4811 18.0047 68.7211 18.2541 69.0317 18.4329C69.3423 18.6024 69.7 18.6871 70.1047 18.6871C70.4529 18.6871 70.7729 18.6259 71.0647 18.5035C71.3658 18.3812 71.62 18.2024 71.827 17.9671L72.8153 18.9694C72.4858 19.3553 72.0858 19.6471 71.6153 19.8447C71.1447 20.0424 70.6458 20.1412 70.1188 20.1412ZM76.7284 20.1412C76.3519 20.1412 75.9896 20.0941 75.6413 20C75.2931 19.8965 74.9731 19.7553 74.6813 19.5765C74.3896 19.3882 74.1354 19.1624 73.919 18.8988L74.9072 17.9106C75.1425 18.1835 75.4107 18.3906 75.7119 18.5318C76.0225 18.6635 76.3707 18.7294 76.7566 18.7294C77.1048 18.7294 77.3684 18.6776 77.5472 18.5741C77.726 18.4706 77.8154 18.32 77.8154 18.1224C77.8154 17.9153 77.7307 17.7553 77.5613 17.6424C77.3919 17.5294 77.1707 17.4353 76.8978 17.36C76.6343 17.2753 76.3519 17.1906 76.0507 17.1059C75.759 17.0212 75.4766 16.9082 75.2037 16.7671C74.9401 16.6165 74.7237 16.4141 74.5543 16.16C74.3848 15.9059 74.3001 15.5765 74.3001 15.1718C74.3001 14.7388 74.399 14.3671 74.5966 14.0565C74.8037 13.7459 75.0907 13.5059 75.4578 13.3365C75.8343 13.1671 76.2813 13.0824 76.799 13.0824C77.3448 13.0824 77.8248 13.1812 78.239 13.3788C78.6625 13.5671 79.0154 13.8541 79.2978 14.24L78.3096 15.2282C78.1119 14.9835 77.886 14.8 77.6319 14.6776C77.3778 14.5553 77.086 14.4941 76.7566 14.4941C76.446 14.4941 76.206 14.5412 76.0366 14.6353C75.8672 14.7294 75.7825 14.8659 75.7825 15.0447C75.7825 15.2329 75.8672 15.3788 76.0366 15.4824C76.206 15.5859 76.4225 15.6753 76.686 15.7506C76.959 15.8259 77.2413 15.9106 77.5331 16.0047C77.8343 16.0894 78.1166 16.2118 78.3801 16.3718C78.6531 16.5224 78.8743 16.7294 79.0437 16.9929C79.2131 17.2471 79.2978 17.5812 79.2978 17.9953C79.2978 18.6541 79.0672 19.1765 78.606 19.5624C78.1448 19.9482 77.519 20.1412 76.7284 20.1412ZM81.6087 20V10.4H83.1616V20H81.6087ZM79.9851 14.6353V13.2235H84.7851V14.6353H79.9851ZM87.8177 20L91.8836 10.1176H93.013L97.0506 20H95.3L92.1377 11.9953H92.7306L89.54 20H87.8177ZM89.8224 18.0941V16.6824H95.06V18.0941H89.8224ZM105.38 20.1412C104.665 20.1412 104.002 20.0141 103.39 19.76C102.787 19.4965 102.26 19.1341 101.809 18.6729C101.357 18.2024 101.009 17.6612 100.764 17.0494C100.519 16.4282 100.397 15.7647 100.397 15.0588C100.397 14.3529 100.519 13.6941 100.764 13.0824C101.009 12.4612 101.357 11.92 101.809 11.4588C102.26 10.9976 102.787 10.6353 103.39 10.3718C104.002 10.1082 104.665 9.97647 105.38 9.97647C106.18 9.97647 106.872 10.1082 107.456 10.3718C108.039 10.6353 108.557 10.9929 109.009 11.4447L107.907 12.5459C107.616 12.2259 107.258 11.9765 106.834 11.7976C106.42 11.6188 105.936 11.5294 105.38 11.5294C104.891 11.5294 104.444 11.6141 104.039 11.7835C103.634 11.9529 103.282 12.1976 102.98 12.5176C102.689 12.8282 102.463 13.2 102.303 13.6329C102.143 14.0659 102.063 14.5412 102.063 15.0588C102.063 15.5765 102.143 16.0518 102.303 16.4847C102.463 16.9176 102.689 17.2941 102.98 17.6141C103.282 17.9247 103.634 18.1647 104.039 18.3341C104.444 18.5035 104.891 18.5882 105.38 18.5882C105.983 18.5882 106.491 18.4988 106.905 18.32C107.329 18.1318 107.686 17.8776 107.978 17.5576L109.079 18.6588C108.627 19.12 108.096 19.4824 107.484 19.7459C106.872 20.0094 106.171 20.1412 105.38 20.1412ZM112.947 20.1412C112.335 20.1412 111.78 19.9859 111.281 19.6753C110.792 19.3647 110.401 18.9459 110.109 18.4188C109.827 17.8824 109.686 17.2847 109.686 16.6259C109.686 15.9576 109.827 15.36 110.109 14.8329C110.401 14.2965 110.792 13.8729 111.281 13.5624C111.78 13.2424 112.335 13.0824 112.947 13.0824C113.465 13.0824 113.921 13.1953 114.316 13.4212C114.721 13.6376 115.041 13.9388 115.276 14.3247C115.512 14.7106 115.629 15.1482 115.629 15.6376V17.5859C115.629 18.0753 115.512 18.5129 115.276 18.8988C115.051 19.2847 114.735 19.5906 114.331 19.8165C113.926 20.0329 113.465 20.1412 112.947 20.1412ZM113.201 18.6729C113.775 18.6729 114.236 18.48 114.585 18.0941C114.942 17.7082 115.121 17.2141 115.121 16.6118C115.121 16.2071 115.041 15.8494 114.881 15.5388C114.721 15.2282 114.495 14.9882 114.203 14.8188C113.921 14.64 113.587 14.5506 113.201 14.5506C112.825 14.5506 112.491 14.64 112.199 14.8188C111.916 14.9882 111.691 15.2282 111.521 15.5388C111.361 15.8494 111.281 16.2071 111.281 16.6118C111.281 17.0165 111.361 17.3741 111.521 17.6847C111.691 17.9953 111.916 18.24 112.199 18.4188C112.491 18.5882 112.825 18.6729 113.201 18.6729ZM115.022 20V18.1788L115.291 16.5271L115.022 14.8894V13.2235H116.575V20H115.022ZM118.299 20V9.83529H119.852V20H118.299ZM121.58 20V9.83529H123.133V20H121.58Z" fill="black"/>
</svg>
