<svg width="34" height="34" viewBox="0 0 34 34" fill="none" xmlns="http://www.w3.org/2000/svg">
<rect x="0.325912" width="33.163" height="33.163" rx="8" fill="#F5F9FF"/>
<g clip-path="url(#clip0_49_2889)">
<path d="M24.4297 13.4767C24.3943 12.6758 24.2648 12.1252 24.0793 11.648C23.8879 11.1415 23.5934 10.6881 23.2076 10.3112C22.8306 9.92834 22.3742 9.63088 21.8736 9.44246C21.3937 9.25692 20.846 9.1274 20.045 9.09208C19.2381 9.05378 18.9819 9.04492 16.9353 9.04492C14.8887 9.04492 14.6326 9.05378 13.8286 9.08909C13.0277 9.12441 12.4771 9.25404 12 9.43947C11.4935 9.63088 11.04 9.92535 10.6631 10.3112C10.2803 10.6881 9.9829 11.1445 9.79437 11.6451C9.60883 12.1252 9.47931 12.6728 9.444 13.4737C9.40569 14.2807 9.39684 14.5368 9.39684 16.5834C9.39684 18.63 9.40569 18.8862 9.44101 19.6901C9.47632 20.4911 9.60596 21.0417 9.7915 21.5188C9.9829 22.0253 10.2803 22.4788 10.6631 22.8557C11.04 23.2385 11.4964 23.536 11.9971 23.7244C12.4771 23.9099 13.0247 24.0395 13.8258 24.0748C14.6296 24.1102 14.8859 24.1189 16.9325 24.1189C18.979 24.1189 19.2352 24.1102 20.0391 24.0748C20.8401 24.0395 21.3907 23.9099 21.8677 23.7244C22.8808 23.3327 23.6817 22.5318 24.0734 21.5188C24.2588 21.0388 24.3885 20.4911 24.4238 19.6901C24.4591 18.8862 24.468 18.63 24.468 16.5834C24.468 14.5368 24.465 14.2807 24.4297 13.4767ZM23.0722 19.6312C23.0398 20.3674 22.9161 20.7649 22.813 21.03C22.5598 21.6867 22.0386 22.2079 21.3819 22.4612C21.1168 22.5642 20.7164 22.6879 19.9831 22.7202C19.188 22.7556 18.9496 22.7644 16.9383 22.7644C14.9271 22.7644 14.6856 22.7556 13.8934 22.7202C13.1572 22.6879 12.7597 22.5642 12.4947 22.4612C12.1679 22.3404 11.8704 22.149 11.629 21.8987C11.3787 21.6542 11.1873 21.3598 11.0665 21.033C10.9634 20.7679 10.8398 20.3674 10.8074 19.6342C10.772 18.8391 10.7633 18.6006 10.7633 16.5893C10.7633 14.578 10.772 14.3366 10.8074 13.5445C10.8398 12.8083 10.9634 12.4108 11.0665 12.1457C11.1873 11.8188 11.3787 11.5215 11.632 11.2799C11.8763 11.0296 12.1707 10.8382 12.4977 10.7176C12.7627 10.6145 13.1632 10.4908 13.8964 10.4584C14.6915 10.4231 14.93 10.4142 16.9412 10.4142C18.9555 10.4142 19.1939 10.4231 19.9861 10.4584C20.7223 10.4908 21.1198 10.6145 21.3849 10.7176C21.7117 10.8382 22.0091 11.0296 22.2506 11.2799C22.5009 11.5244 22.6923 11.8188 22.813 12.1457C22.9161 12.4108 23.0398 12.8112 23.0722 13.5445C23.1075 14.3396 23.1164 14.578 23.1164 16.5893C23.1164 18.6006 23.1075 18.8361 23.0722 19.6312Z" fill="black"/>
<path d="M16.9354 12.7109C14.7976 12.7109 13.063 14.4453 13.063 16.5833C13.063 18.7212 14.7976 20.4556 16.9354 20.4556C19.0733 20.4556 20.8077 18.7212 20.8077 16.5833C20.8077 14.4453 19.0733 12.7109 16.9354 12.7109ZM16.9354 19.0951C15.5485 19.0951 14.4235 17.9703 14.4235 16.5833C14.4235 15.1962 15.5485 14.0714 16.9354 14.0714C18.3224 14.0714 19.4472 15.1962 19.4472 16.5833C19.4472 17.9703 18.3224 19.0951 16.9354 19.0951Z" fill="black"/>
<path d="M21.8649 12.5583C21.8649 13.0575 21.4601 13.4623 20.9608 13.4623C20.4615 13.4623 20.0567 13.0575 20.0567 12.5583C20.0567 12.059 20.4615 11.6543 20.9608 11.6543C21.4601 11.6543 21.8649 12.059 21.8649 12.5583Z" fill="black"/>
</g>
<defs>
<clipPath id="clip0_49_2889">
<rect width="15.0741" height="15.0741" fill="white" transform="translate(9.37036 9.04492)"/>
</clipPath>
</defs>
</svg>
