<svg width="34" height="34" viewBox="0 0 34 34" fill="none" xmlns="http://www.w3.org/2000/svg">
<rect x="0.162956" width="33.163" height="33.163" rx="8" fill="#F5F9FF"/>
<g clip-path="url(#clip0_49_2887)">
<path fill-rule="evenodd" clip-rule="evenodd" d="M22.6423 11.6353C23.288 11.8092 23.7971 12.3182 23.9709 12.964C24.2938 14.1435 24.2814 16.6021 24.2814 16.6021C24.2814 16.6021 24.2814 19.0481 23.971 20.2277C23.7971 20.8734 23.2881 21.3825 22.6423 21.5563C21.4627 21.8668 16.7444 21.8668 16.7444 21.8668C16.7444 21.8668 12.0384 21.8668 10.8465 21.544C10.2007 21.3701 9.69169 20.861 9.5178 20.2153C9.2074 19.0481 9.2074 16.5896 9.2074 16.5896C9.2074 16.5896 9.2074 14.1435 9.5178 12.964C9.69157 12.3183 10.2131 11.7968 10.8463 11.623C12.026 11.3125 16.7443 11.3125 16.7443 11.3125C16.7443 11.3125 21.4627 11.3125 22.6423 11.6353ZM19.1655 16.5894L15.2418 18.8493V14.3295L19.1655 16.5894Z" fill="black"/>
</g>
<defs>
<clipPath id="clip0_49_2887">
<rect width="15.0741" height="15.0741" fill="white" transform="translate(9.2074 9.04492)"/>
</clipPath>
</defs>
</svg>
